<svg xmlns="http://www.w3.org/2000/svg" xmlns:xlink="http://www.w3.org/1999/xlink" width="800" zoomAndPan="magnify" viewBox="0 0 600 383.249997" height="511" preserveAspectRatio="xMidYMid meet" version="1.0"><defs><clipPath id="2a21e059d5"><path d="M 0.585938 0 L 599.414062 0 L 599.414062 382.5 L 0.585938 382.5 Z M 0.585938 0 " clip-rule="nonzero"/></clipPath><linearGradient x1="72.25" gradientTransform="matrix(0.748535, 0, 0, 0.748535, 0.58594, 0.00000998047)" y1="-72.25" x2="727.749973" gradientUnits="userSpaceOnUse" y2="583.249973" id="959870481b"><stop stop-opacity="1" stop-color="rgb(86.669922%, 36.859131%, 34.118652%)" offset="0"/><stop stop-opacity="1" stop-color="rgb(86.579895%, 36.761475%, 34.020996%)" offset="0.0078125"/><stop stop-opacity="1" stop-color="rgb(86.402893%, 36.564636%, 33.824158%)" offset="0.015625"/><stop stop-opacity="1" stop-color="rgb(86.224365%, 36.369324%, 33.628845%)" offset="0.0234375"/><stop stop-opacity="1" stop-color="rgb(86.047363%, 36.172485%, 33.432007%)" offset="0.03125"/><stop stop-opacity="1" stop-color="rgb(85.868835%, 35.977173%, 33.236694%)" offset="0.0390625"/><stop stop-opacity="1" stop-color="rgb(85.691833%, 35.780334%, 33.039856%)" offset="0.046875"/><stop stop-opacity="1" stop-color="rgb(85.513306%, 35.583496%, 32.844543%)" offset="0.0546875"/><stop stop-opacity="1" stop-color="rgb(85.336304%, 35.388184%, 32.647705%)" offset="0.0625"/><stop stop-opacity="1" stop-color="rgb(85.157776%, 35.191345%, 32.452393%)" offset="0.0703125"/><stop stop-opacity="1" stop-color="rgb(84.980774%, 34.996033%, 32.255554%)" offset="0.078125"/><stop stop-opacity="1" stop-color="rgb(84.802246%, 34.799194%, 32.060242%)" offset="0.0859375"/><stop stop-opacity="1" stop-color="rgb(84.625244%, 34.603882%, 31.863403%)" offset="0.09375"/><stop stop-opacity="1" stop-color="rgb(84.446716%, 34.407043%, 31.668091%)" offset="0.101562"/><stop stop-opacity="1" stop-color="rgb(84.269714%, 34.211731%, 31.471252%)" offset="0.109375"/><stop stop-opacity="1" stop-color="rgb(84.091187%, 34.014893%, 31.27594%)" offset="0.117188"/><stop stop-opacity="1" stop-color="rgb(83.914185%, 33.81958%, 31.079102%)" offset="0.125"/><stop stop-opacity="1" stop-color="rgb(83.735657%, 33.622742%, 30.883789%)" offset="0.132812"/><stop stop-opacity="1" stop-color="rgb(83.558655%, 33.427429%, 30.686951%)" offset="0.140625"/><stop stop-opacity="1" stop-color="rgb(83.380127%, 33.230591%, 30.491638%)" offset="0.148438"/><stop stop-opacity="1" stop-color="rgb(83.203125%, 33.035278%, 30.2948%)" offset="0.15625"/><stop stop-opacity="1" stop-color="rgb(83.024597%, 32.83844%, 30.099487%)" offset="0.164062"/><stop stop-opacity="1" stop-color="rgb(82.847595%, 32.643127%, 29.902649%)" offset="0.171875"/><stop stop-opacity="1" stop-color="rgb(82.670593%, 32.446289%, 29.707336%)" offset="0.179688"/><stop stop-opacity="1" stop-color="rgb(82.492065%, 32.250977%, 29.510498%)" offset="0.1875"/><stop stop-opacity="1" stop-color="rgb(82.315063%, 32.054138%, 29.315186%)" offset="0.195312"/><stop stop-opacity="1" stop-color="rgb(82.136536%, 31.858826%, 29.118347%)" offset="0.203125"/><stop stop-opacity="1" stop-color="rgb(81.959534%, 31.661987%, 28.923035%)" offset="0.210938"/><stop stop-opacity="1" stop-color="rgb(81.781006%, 31.466675%, 28.726196%)" offset="0.21875"/><stop stop-opacity="1" stop-color="rgb(81.604004%, 31.269836%, 28.530884%)" offset="0.226562"/><stop stop-opacity="1" stop-color="rgb(81.425476%, 31.074524%, 28.334045%)" offset="0.234375"/><stop stop-opacity="1" stop-color="rgb(81.248474%, 30.877686%, 28.138733%)" offset="0.242188"/><stop stop-opacity="1" stop-color="rgb(81.069946%, 30.682373%, 27.941895%)" offset="0.25"/><stop stop-opacity="1" stop-color="rgb(80.892944%, 30.485535%, 27.745056%)" offset="0.257812"/><stop stop-opacity="1" stop-color="rgb(80.714417%, 30.290222%, 27.549744%)" offset="0.265625"/><stop stop-opacity="1" stop-color="rgb(80.537415%, 30.093384%, 27.352905%)" offset="0.273438"/><stop stop-opacity="1" stop-color="rgb(80.358887%, 29.898071%, 27.157593%)" offset="0.28125"/><stop stop-opacity="1" stop-color="rgb(80.181885%, 29.701233%, 26.960754%)" offset="0.289062"/><stop stop-opacity="1" stop-color="rgb(80.003357%, 29.50592%, 26.765442%)" offset="0.296875"/><stop stop-opacity="1" stop-color="rgb(79.826355%, 29.309082%, 26.568604%)" offset="0.304688"/><stop stop-opacity="1" stop-color="rgb(79.647827%, 29.11377%, 26.373291%)" offset="0.3125"/><stop stop-opacity="1" stop-color="rgb(79.470825%, 28.916931%, 26.176453%)" offset="0.320312"/><stop stop-opacity="1" stop-color="rgb(79.292297%, 28.721619%, 25.98114%)" offset="0.328125"/><stop stop-opacity="1" stop-color="rgb(79.115295%, 28.52478%, 25.784302%)" offset="0.335938"/><stop stop-opacity="1" stop-color="rgb(78.936768%, 28.329468%, 25.588989%)" offset="0.34375"/><stop stop-opacity="1" stop-color="rgb(78.759766%, 28.132629%, 25.392151%)" offset="0.351562"/><stop stop-opacity="1" stop-color="rgb(78.581238%, 27.937317%, 25.196838%)" offset="0.359375"/><stop stop-opacity="1" stop-color="rgb(78.404236%, 27.740479%, 25%)" offset="0.367188"/><stop stop-opacity="1" stop-color="rgb(78.227234%, 27.54364%, 24.804688%)" offset="0.375"/><stop stop-opacity="1" stop-color="rgb(78.048706%, 27.348328%, 24.607849%)" offset="0.382812"/><stop stop-opacity="1" stop-color="rgb(77.871704%, 27.151489%, 24.412537%)" offset="0.389779"/><stop stop-opacity="1" stop-color="rgb(77.783203%, 27.053833%, 24.31488%)" offset="0.390625"/><stop stop-opacity="1" stop-color="rgb(77.693176%, 26.956177%, 24.215698%)" offset="0.398438"/><stop stop-opacity="1" stop-color="rgb(77.516174%, 26.759338%, 24.020386%)" offset="0.40625"/><stop stop-opacity="1" stop-color="rgb(77.337646%, 26.564026%, 23.823547%)" offset="0.414062"/><stop stop-opacity="1" stop-color="rgb(77.160645%, 26.367188%, 23.628235%)" offset="0.421875"/><stop stop-opacity="1" stop-color="rgb(76.982117%, 26.171875%, 23.431396%)" offset="0.429688"/><stop stop-opacity="1" stop-color="rgb(76.805115%, 25.975037%, 23.236084%)" offset="0.4375"/><stop stop-opacity="1" stop-color="rgb(76.626587%, 25.779724%, 23.039246%)" offset="0.445312"/><stop stop-opacity="1" stop-color="rgb(76.449585%, 25.582886%, 22.843933%)" offset="0.453125"/><stop stop-opacity="1" stop-color="rgb(76.271057%, 25.387573%, 22.647095%)" offset="0.460938"/><stop stop-opacity="1" stop-color="rgb(76.094055%, 25.190735%, 22.451782%)" offset="0.46875"/><stop stop-opacity="1" stop-color="rgb(75.915527%, 24.995422%, 22.254944%)" offset="0.476562"/><stop stop-opacity="1" stop-color="rgb(75.738525%, 24.798584%, 22.059631%)" offset="0.484375"/><stop stop-opacity="1" stop-color="rgb(75.559998%, 24.603271%, 21.862793%)" offset="0.492188"/><stop stop-opacity="1" stop-color="rgb(75.382996%, 24.406433%, 21.66748%)" offset="0.5"/><stop stop-opacity="1" stop-color="rgb(75.204468%, 24.211121%, 21.470642%)" offset="0.507812"/><stop stop-opacity="1" stop-color="rgb(75.027466%, 24.014282%, 21.27533%)" offset="0.515625"/><stop stop-opacity="1" stop-color="rgb(74.848938%, 23.81897%, 21.078491%)" offset="0.523438"/><stop stop-opacity="1" stop-color="rgb(74.671936%, 23.622131%, 20.883179%)" offset="0.53125"/><stop stop-opacity="1" stop-color="rgb(74.493408%, 23.426819%, 20.68634%)" offset="0.539062"/><stop stop-opacity="1" stop-color="rgb(74.316406%, 23.22998%, 20.491028%)" offset="0.546875"/><stop stop-opacity="1" stop-color="rgb(74.137878%, 23.034668%, 20.294189%)" offset="0.554688"/><stop stop-opacity="1" stop-color="rgb(73.960876%, 22.83783%, 20.098877%)" offset="0.5625"/><stop stop-opacity="1" stop-color="rgb(73.783875%, 22.642517%, 19.902039%)" offset="0.570312"/><stop stop-opacity="1" stop-color="rgb(73.605347%, 22.445679%, 19.7052%)" offset="0.578125"/><stop stop-opacity="1" stop-color="rgb(73.428345%, 22.250366%, 19.509888%)" offset="0.585938"/><stop stop-opacity="1" stop-color="rgb(73.249817%, 22.053528%, 19.313049%)" offset="0.59375"/><stop stop-opacity="1" stop-color="rgb(73.072815%, 21.858215%, 19.117737%)" offset="0.601562"/><stop stop-opacity="1" stop-color="rgb(72.894287%, 21.661377%, 18.920898%)" offset="0.609375"/><stop stop-opacity="1" stop-color="rgb(72.717285%, 21.466064%, 18.725586%)" offset="0.610221"/><stop stop-opacity="1" stop-color="rgb(72.628784%, 21.368408%, 18.62793%)" offset="0.617188"/><stop stop-opacity="1" stop-color="rgb(72.538757%, 21.269226%, 18.528748%)" offset="0.625"/><stop stop-opacity="1" stop-color="rgb(72.361755%, 21.073914%, 18.333435%)" offset="0.632812"/><stop stop-opacity="1" stop-color="rgb(72.183228%, 20.877075%, 18.136597%)" offset="0.640625"/><stop stop-opacity="1" stop-color="rgb(72.006226%, 20.681763%, 17.941284%)" offset="0.648438"/><stop stop-opacity="1" stop-color="rgb(71.827698%, 20.484924%, 17.744446%)" offset="0.65625"/><stop stop-opacity="1" stop-color="rgb(71.650696%, 20.289612%, 17.549133%)" offset="0.664062"/><stop stop-opacity="1" stop-color="rgb(71.472168%, 20.092773%, 17.352295%)" offset="0.671875"/><stop stop-opacity="1" stop-color="rgb(71.295166%, 19.897461%, 17.156982%)" offset="0.679688"/><stop stop-opacity="1" stop-color="rgb(71.116638%, 19.700623%, 16.960144%)" offset="0.6875"/><stop stop-opacity="1" stop-color="rgb(70.939636%, 19.50531%, 16.764832%)" offset="0.695312"/><stop stop-opacity="1" stop-color="rgb(70.761108%, 19.308472%, 16.567993%)" offset="0.703125"/><stop stop-opacity="1" stop-color="rgb(70.584106%, 19.111633%, 16.372681%)" offset="0.710938"/><stop stop-opacity="1" stop-color="rgb(70.405579%, 18.916321%, 16.175842%)" offset="0.71875"/><stop stop-opacity="1" stop-color="rgb(70.228577%, 18.719482%, 15.98053%)" offset="0.726562"/><stop stop-opacity="1" stop-color="rgb(70.050049%, 18.52417%, 15.783691%)" offset="0.734375"/><stop stop-opacity="1" stop-color="rgb(69.873047%, 18.327332%, 15.588379%)" offset="0.742188"/><stop stop-opacity="1" stop-color="rgb(69.694519%, 18.132019%, 15.391541%)" offset="0.75"/><stop stop-opacity="1" stop-color="rgb(69.517517%, 17.935181%, 15.196228%)" offset="0.757812"/><stop stop-opacity="1" stop-color="rgb(69.340515%, 17.739868%, 14.99939%)" offset="0.765625"/><stop stop-opacity="1" stop-color="rgb(69.161987%, 17.54303%, 14.804077%)" offset="0.773438"/><stop stop-opacity="1" stop-color="rgb(68.984985%, 17.347717%, 14.607239%)" offset="0.78125"/><stop stop-opacity="1" stop-color="rgb(68.806458%, 17.150879%, 14.411926%)" offset="0.789062"/><stop stop-opacity="1" stop-color="rgb(68.629456%, 16.955566%, 14.215088%)" offset="0.796875"/><stop stop-opacity="1" stop-color="rgb(68.450928%, 16.758728%, 14.019775%)" offset="0.804688"/><stop stop-opacity="1" stop-color="rgb(68.273926%, 16.563416%, 13.822937%)" offset="0.8125"/><stop stop-opacity="1" stop-color="rgb(68.095398%, 16.366577%, 13.627625%)" offset="0.820312"/><stop stop-opacity="1" stop-color="rgb(67.918396%, 16.171265%, 13.430786%)" offset="0.828125"/><stop stop-opacity="1" stop-color="rgb(67.739868%, 15.974426%, 13.235474%)" offset="0.835938"/><stop stop-opacity="1" stop-color="rgb(67.562866%, 15.779114%, 13.038635%)" offset="0.84375"/><stop stop-opacity="1" stop-color="rgb(67.384338%, 15.582275%, 12.843323%)" offset="0.851562"/><stop stop-opacity="1" stop-color="rgb(67.207336%, 15.386963%, 12.646484%)" offset="0.859375"/><stop stop-opacity="1" stop-color="rgb(67.028809%, 15.190125%, 12.451172%)" offset="0.867188"/><stop stop-opacity="1" stop-color="rgb(66.851807%, 14.994812%, 12.254333%)" offset="0.875"/><stop stop-opacity="1" stop-color="rgb(66.673279%, 14.797974%, 12.059021%)" offset="0.882812"/><stop stop-opacity="1" stop-color="rgb(66.496277%, 14.602661%, 11.862183%)" offset="0.890625"/><stop stop-opacity="1" stop-color="rgb(66.317749%, 14.405823%, 11.66687%)" offset="0.898438"/><stop stop-opacity="1" stop-color="rgb(66.140747%, 14.21051%, 11.470032%)" offset="0.90625"/><stop stop-opacity="1" stop-color="rgb(65.962219%, 14.013672%, 11.273193%)" offset="0.914062"/><stop stop-opacity="1" stop-color="rgb(65.785217%, 13.818359%, 11.077881%)" offset="0.921875"/><stop stop-opacity="1" stop-color="rgb(65.606689%, 13.621521%, 10.881042%)" offset="0.929688"/><stop stop-opacity="1" stop-color="rgb(65.429688%, 13.426208%, 10.68573%)" offset="0.9375"/><stop stop-opacity="1" stop-color="rgb(65.25116%, 13.22937%, 10.488892%)" offset="0.945312"/><stop stop-opacity="1" stop-color="rgb(65.074158%, 13.034058%, 10.293579%)" offset="0.953125"/><stop stop-opacity="1" stop-color="rgb(64.897156%, 12.837219%, 10.096741%)" offset="0.960938"/><stop stop-opacity="1" stop-color="rgb(64.718628%, 12.641907%, 9.901428%)" offset="0.96875"/><stop stop-opacity="1" stop-color="rgb(64.541626%, 12.445068%, 9.70459%)" offset="0.976562"/><stop stop-opacity="1" stop-color="rgb(64.363098%, 12.249756%, 9.509277%)" offset="0.984375"/><stop stop-opacity="1" stop-color="rgb(64.186096%, 12.052917%, 9.312439%)" offset="0.992188"/><stop stop-opacity="1" stop-color="rgb(64.007568%, 11.857605%, 9.117126%)" offset="1"/></linearGradient><clipPath id="61ca6ac078"><path d="M 343 150 L 587 150 L 587 367.734375 L 343 367.734375 Z M 343 150 " clip-rule="nonzero"/></clipPath></defs><g clip-path="url(#2a21e059d5)"><path fill="#ffffff" d="M 0.585938 0 L 599.414062 0 L 599.414062 382.5 L 0.585938 382.5 Z M 0.585938 0 " fill-opacity="1" fill-rule="nonzero"/><path fill="url(#959870481b)" d="M 0.585938 0 L 0.585938 382.5 L 599.414062 382.5 L 599.414062 0 Z M 0.585938 0 " fill-rule="nonzero"/></g><g clip-path="url(#61ca6ac078)"><path fill="#ffffff" d="M 470.304688 159.976562 L 445.777344 203.582031 C 446.707031 203.683594 447.566406 203.980469 448.363281 204.476562 C 455.847656 209.1875 462.957031 214.410156 469.695312 220.140625 C 470.015625 220.414062 470.304688 220.714844 470.566406 221.042969 C 470.828125 221.371094 471.054688 221.722656 471.25 222.097656 C 471.441406 222.472656 471.59375 222.859375 471.710938 223.265625 C 471.828125 223.667969 471.902344 224.082031 471.9375 224.5 C 471.96875 224.917969 471.964844 225.335938 471.914062 225.753906 C 471.867188 226.171875 471.777344 226.582031 471.648438 226.980469 C 471.523438 227.382812 471.355469 227.765625 471.152344 228.132812 C 470.945312 228.5 470.707031 228.84375 470.433594 229.164062 C 470.164062 229.484375 469.863281 229.777344 469.53125 230.035156 C 469.203125 230.296875 468.851562 230.523438 468.476562 230.714844 C 468.101562 230.90625 467.710938 231.058594 467.308594 231.175781 C 466.902344 231.289062 466.492188 231.363281 466.074219 231.398438 C 465.652344 231.429688 465.234375 231.421875 464.816406 231.375 C 464.398438 231.324219 463.992188 231.234375 463.589844 231.105469 C 463.191406 230.976562 462.808594 230.808594 462.441406 230.605469 C 462.074219 230.398438 461.730469 230.160156 461.410156 229.886719 C 455.128906 224.554688 448.507812 219.691406 441.539062 215.292969 C 440.949219 214.894531 440.4375 214.40625 440.011719 213.835938 L 360.535156 355.128906 L 522.085938 355.128906 C 521.878906 348.480469 521.292969 341.863281 520.328125 335.277344 C 520.265625 334.863281 520.246094 334.445312 520.265625 334.027344 C 520.285156 333.609375 520.34375 333.195312 520.445312 332.789062 C 520.546875 332.382812 520.6875 331.992188 520.867188 331.613281 C 521.042969 331.230469 521.257812 330.875 521.507812 330.535156 C 521.753906 330.199219 522.035156 329.890625 522.34375 329.609375 C 522.65625 329.324219 522.988281 329.074219 523.347656 328.859375 C 523.707031 328.644531 524.082031 328.464844 524.476562 328.320312 C 524.871094 328.179688 525.277344 328.074219 525.691406 328.011719 C 526.105469 327.949219 526.519531 327.925781 526.941406 327.945312 C 527.359375 327.964844 527.769531 328.023438 528.179688 328.125 C 528.585938 328.222656 528.976562 328.363281 529.359375 328.539062 C 529.738281 328.71875 530.097656 328.929688 530.433594 329.179688 C 530.773438 329.425781 531.082031 329.703125 531.367188 330.011719 C 531.648438 330.324219 531.898438 330.65625 532.117188 331.015625 C 532.335938 331.371094 532.515625 331.75 532.660156 332.140625 C 532.800781 332.535156 532.90625 332.941406 532.972656 333.355469 C 534.035156 340.574219 534.671875 347.832031 534.882812 355.128906 L 579.871094 355.128906 C 580.289062 355.128906 580.707031 355.171875 581.117188 355.253906 C 581.53125 355.335938 581.929688 355.457031 582.316406 355.617188 C 582.707031 355.777344 583.074219 355.972656 583.425781 356.207031 C 583.773438 356.441406 584.097656 356.707031 584.394531 357.003906 C 584.691406 357.300781 584.957031 357.625 585.1875 357.972656 C 585.421875 358.320312 585.621094 358.691406 585.78125 359.078125 C 585.941406 359.464844 586.0625 359.867188 586.144531 360.277344 C 586.226562 360.691406 586.265625 361.105469 586.265625 361.527344 C 586.265625 361.945312 586.226562 362.363281 586.144531 362.773438 C 586.0625 363.1875 585.941406 363.585938 585.78125 363.972656 C 585.621094 364.363281 585.421875 364.730469 585.1875 365.078125 C 584.957031 365.429688 584.691406 365.753906 584.394531 366.050781 C 584.097656 366.347656 583.773438 366.613281 583.425781 366.84375 C 583.074219 367.078125 582.707031 367.273438 582.316406 367.4375 C 581.929688 367.597656 581.53125 367.71875 581.117188 367.800781 C 580.707031 367.882812 580.289062 367.921875 579.871094 367.921875 L 349.597656 367.921875 C 349.320312 367.921875 349.042969 367.90625 348.765625 367.867188 C 348.492188 367.832031 348.21875 367.777344 347.949219 367.707031 C 347.683594 367.636719 347.417969 367.546875 347.164062 367.441406 C 346.90625 367.335938 346.65625 367.210938 346.414062 367.074219 C 346.175781 366.933594 345.945312 366.78125 345.722656 366.613281 C 345.5 366.445312 345.292969 366.261719 345.09375 366.066406 C 344.898438 365.871094 344.714844 365.664062 344.542969 365.445312 C 344.375 365.222656 344.21875 364.996094 344.078125 364.753906 C 343.9375 364.515625 343.8125 364.265625 343.707031 364.011719 C 343.597656 363.753906 343.507812 363.492188 343.433594 363.222656 C 343.359375 362.957031 343.304688 362.683594 343.265625 362.410156 C 343.226562 362.132812 343.207031 361.855469 343.203125 361.578125 C 343.203125 361.300781 343.21875 361.023438 343.25 360.75 C 343.285156 360.472656 343.335938 360.199219 343.40625 359.929688 C 343.476562 359.660156 343.5625 359.398438 343.664062 359.140625 C 343.769531 358.882812 343.890625 358.632812 344.023438 358.390625 L 459.160156 153.703125 C 459.367188 153.339844 459.609375 152.996094 459.882812 152.679688 C 460.15625 152.363281 460.457031 152.074219 460.789062 151.816406 C 461.117188 151.558594 461.46875 151.335938 461.84375 151.148438 C 462.21875 150.957031 462.605469 150.808594 463.011719 150.695312 C 463.414062 150.582031 463.824219 150.511719 464.242188 150.480469 C 464.660156 150.449219 465.078125 150.457031 465.492188 150.507812 C 465.910156 150.558594 466.316406 150.648438 466.714844 150.78125 C 467.113281 150.910156 467.496094 151.078125 467.859375 151.285156 C 468.226562 151.488281 468.566406 151.726562 468.886719 152 C 469.203125 152.273438 469.492188 152.574219 469.75 152.902344 C 470.011719 153.234375 470.234375 153.585938 470.425781 153.957031 C 470.613281 154.332031 470.765625 154.71875 470.878906 155.125 C 470.992188 155.527344 471.066406 155.9375 471.097656 156.355469 C 471.132812 156.773438 471.125 157.191406 471.074219 157.605469 C 471.023438 158.023438 470.9375 158.429688 470.804688 158.828125 C 470.675781 159.226562 470.511719 159.609375 470.304688 159.976562 Z M 514.871094 311.253906 C 514.996094 311.652344 515.15625 312.035156 515.355469 312.402344 C 515.554688 312.769531 515.789062 313.113281 516.058594 313.433594 C 516.324219 313.757812 516.621094 314.046875 516.945312 314.3125 C 517.269531 314.574219 517.617188 314.804688 517.988281 315 C 518.355469 315.195312 518.742188 315.351562 519.140625 315.472656 C 519.542969 315.589844 519.949219 315.671875 520.367188 315.710938 C 520.78125 315.75 521.199219 315.75 521.613281 315.707031 C 522.027344 315.667969 522.4375 315.585938 522.835938 315.464844 C 523.238281 315.339844 523.621094 315.183594 523.988281 314.984375 C 524.359375 314.789062 524.703125 314.558594 525.027344 314.292969 C 525.351562 314.027344 525.644531 313.734375 525.910156 313.414062 C 526.175781 313.089844 526.410156 312.746094 526.609375 312.378906 C 526.804688 312.007812 526.964844 311.625 527.089844 311.226562 C 527.210938 310.828125 527.296875 310.417969 527.339844 310.003906 C 527.382812 309.589844 527.386719 309.171875 527.347656 308.757812 C 527.308594 308.339844 527.230469 307.933594 527.113281 307.53125 C 524.535156 299.066406 521.367188 290.828125 517.609375 282.820312 C 517.433594 282.4375 517.21875 282.078125 516.972656 281.742188 C 516.722656 281.402344 516.445312 281.089844 516.132812 280.808594 C 515.824219 280.523438 515.488281 280.273438 515.128906 280.058594 C 514.769531 279.839844 514.394531 279.660156 514 279.515625 C 513.605469 279.371094 513.199219 279.269531 512.785156 279.207031 C 512.367188 279.140625 511.949219 279.121094 511.53125 279.140625 C 511.113281 279.15625 510.699219 279.21875 510.289062 279.316406 C 509.882812 279.417969 509.488281 279.558594 509.109375 279.734375 C 508.726562 279.914062 508.367188 280.128906 508.03125 280.375 C 507.691406 280.625 507.378906 280.90625 507.097656 281.214844 C 506.8125 281.523438 506.5625 281.859375 506.347656 282.21875 C 506.128906 282.578125 505.949219 282.957031 505.804688 283.351562 C 505.664062 283.746094 505.558594 284.152344 505.496094 284.566406 C 505.433594 284.980469 505.414062 285.398438 505.429688 285.820312 C 505.449219 286.238281 505.511719 286.652344 505.613281 287.058594 C 505.710938 287.46875 505.851562 287.863281 506.03125 288.242188 C 509.527344 295.703125 512.472656 303.371094 514.871094 311.253906 Z M 488.589844 238.667969 C 488.3125 238.359375 488.003906 238.078125 487.671875 237.824219 C 487.335938 237.574219 486.980469 237.359375 486.605469 237.175781 C 486.226562 236.996094 485.835938 236.851562 485.433594 236.746094 C 485.027344 236.644531 484.617188 236.578125 484.199219 236.554688 C 483.78125 236.53125 483.367188 236.546875 482.953125 236.605469 C 482.539062 236.660156 482.132812 236.757812 481.738281 236.894531 C 481.34375 237.03125 480.964844 237.203125 480.605469 237.414062 C 480.242188 237.625 479.90625 237.871094 479.59375 238.148438 C 479.28125 238.425781 478.996094 238.726562 478.742188 239.0625 C 478.492188 239.394531 478.273438 239.746094 478.085938 240.121094 C 477.902344 240.496094 477.757812 240.886719 477.648438 241.292969 C 477.542969 241.695312 477.476562 242.105469 477.449219 242.523438 C 477.421875 242.941406 477.433594 243.355469 477.488281 243.769531 C 477.542969 244.183594 477.636719 244.589844 477.769531 244.984375 C 477.90625 245.382812 478.074219 245.761719 478.285156 246.121094 C 478.492188 246.484375 478.734375 246.824219 479.007812 247.140625 C 484.464844 253.316406 489.457031 259.84375 493.988281 266.730469 C 494.21875 267.078125 494.480469 267.40625 494.773438 267.703125 C 495.070312 268.003906 495.390625 268.269531 495.738281 268.507812 C 496.085938 268.742188 496.453125 268.945312 496.839844 269.109375 C 497.226562 269.269531 497.625 269.394531 498.035156 269.480469 C 498.445312 269.566406 498.863281 269.609375 499.28125 269.613281 C 499.703125 269.617188 500.117188 269.582031 500.53125 269.5 C 500.945312 269.421875 501.34375 269.304688 501.734375 269.148438 C 502.125 268.988281 502.492188 268.796875 502.84375 268.566406 C 503.195312 268.335938 503.519531 268.070312 503.820312 267.777344 C 504.121094 267.484375 504.386719 267.160156 504.625 266.816406 C 504.859375 266.46875 505.058594 266.101562 505.222656 265.714844 C 505.386719 265.328125 505.511719 264.929688 505.597656 264.515625 C 505.683594 264.105469 505.726562 263.691406 505.730469 263.269531 C 505.734375 262.851562 505.695312 262.433594 505.617188 262.019531 C 505.539062 261.609375 505.421875 261.207031 505.265625 260.816406 C 505.105469 260.429688 504.914062 260.058594 504.679688 259.707031 C 499.816406 252.3125 494.453125 245.300781 488.589844 238.667969 Z M 488.589844 238.667969 " fill-opacity="1" fill-rule="nonzero"/></g></svg>