<?xml version="1.0" encoding="UTF-8" standalone="no"?>
<!DOCTYPE svg PUBLIC "-//W3C//DTD SVG 1.1//EN" "http://www.w3.org/Graphics/SVG/1.1/DTD/svg11.dtd">
<svg width="100%" height="100%" viewBox="0 0 772 668" version="1.1" xmlns="http://www.w3.org/2000/svg" xmlns:xlink="http://www.w3.org/1999/xlink" xml:space="preserve" xmlns:serif="http://www.serif.com/" style="fill-rule:evenodd;clip-rule:evenodd;stroke-linejoin:round;stroke-miterlimit:2;">
    <g id="Artboard1" transform="matrix(0.885624,0,0,0.73835,-14.8437,-26.5155)">
        <rect x="16.761" y="35.912" width="871.175" height="904.325" style="fill:none;"/>
        <g transform="matrix(1.50553,0,0,1.80583,-11.6855,-240.826)">
            <clipPath id="_clip1">
                <rect x="153.492" y="153.492" width="443.25" height="443.25"/>
            </clipPath>
            <g clip-path="url(#_clip1)">
                <path d="M153.492,153.492L153.492,596.742L596.742,596.742L153.492,153.492ZM161.883,234.195C163.324,234.305 164.77,234.363 166.211,234.363C181.215,234.363 195.496,228.418 206.055,217.922L527.848,539.719C513.109,550.34 504.414,567.203 504.414,585.539C504.414,586.477 504.445,587.414 504.492,588.352L212.57,588.352L212.57,537.125L161.883,537.125L161.883,234.195ZM510.707,585.539C510.707,568.906 518.766,553.637 532.371,544.238L576.484,588.352L510.793,588.352C510.742,587.418 510.707,586.477 510.707,585.539ZM201.602,213.473C192.223,222.789 179.535,228.066 166.211,228.066C164.77,228.066 163.324,228 161.883,227.879L161.883,173.754L201.602,213.473ZM161.883,543.422L206.273,543.422L206.273,588.352L161.883,588.352L161.883,543.422Z" style="fill-rule:nonzero;"/>
            </g>
        </g>
        <g transform="matrix(1.50553,0,0,1.80583,14.1702,459.383)">
            <g>
                <g>
                    <path d="M1.797,-9.203L5.375,-9.516C5.539,-8.078 5.93,-6.898 6.547,-5.984C7.172,-5.066 8.133,-4.32 9.438,-3.75C10.738,-3.188 12.203,-2.906 13.828,-2.906C15.273,-2.906 16.551,-3.117 17.656,-3.547C18.758,-3.984 19.582,-4.578 20.125,-5.328C20.664,-6.078 20.938,-6.895 20.938,-7.781C20.938,-8.676 20.676,-9.457 20.156,-10.125C19.633,-10.801 18.773,-11.363 17.578,-11.813C16.805,-12.113 15.102,-12.578 12.469,-13.203C9.844,-13.836 8.004,-14.438 6.953,-15C5.586,-15.719 4.566,-16.609 3.891,-17.672C3.223,-18.734 2.891,-19.922 2.891,-21.234C2.891,-22.68 3.301,-24.031 4.125,-25.281C4.945,-26.539 6.145,-27.492 7.719,-28.141C9.289,-28.797 11.039,-29.125 12.969,-29.125C15.094,-29.125 16.961,-28.781 18.578,-28.094C20.203,-27.414 21.453,-26.41 22.328,-25.078C23.203,-23.754 23.672,-22.25 23.734,-20.563L20.094,-20.297C19.906,-22.109 19.242,-23.473 18.109,-24.391C16.984,-25.316 15.32,-25.781 13.125,-25.781C10.832,-25.781 9.16,-25.359 8.109,-24.516C7.066,-23.68 6.547,-22.672 6.547,-21.484C6.547,-20.453 6.914,-19.609 7.656,-18.953C8.383,-18.285 10.285,-17.602 13.359,-16.906C16.441,-16.207 18.555,-15.598 19.703,-15.078C21.367,-14.305 22.598,-13.332 23.391,-12.156C24.191,-10.977 24.594,-9.625 24.594,-8.094C24.594,-6.563 24.156,-5.125 23.281,-3.781C22.406,-2.438 21.148,-1.391 19.516,-0.641C17.891,0.109 16.051,0.484 14,0.484C11.414,0.484 9.242,0.109 7.484,-0.641C5.734,-1.398 4.359,-2.535 3.359,-4.047C2.367,-5.566 1.848,-7.285 1.797,-9.203Z" style="fill-rule:nonzero;"/>
                </g>
            </g>
        </g>
        <g transform="matrix(1.50553,0,0,1.80583,54.3334,459.383)">
            <g>
                <g>
                    <path d="M2.656,-24.594L2.656,-28.641L6.172,-28.641L6.172,-24.594L2.656,-24.594ZM2.656,0L2.656,-20.75L6.172,-20.75L6.172,0L2.656,0Z" style="fill-rule:nonzero;"/>
                </g>
            </g>
        </g>
        <g transform="matrix(1.50553,0,0,1.80583,67.7113,459.383)">
            <g>
                <g>
                    <path d="M16.094,0L16.094,-2.625C14.781,-0.563 12.848,0.469 10.297,0.469C8.641,0.469 7.117,0.016 5.734,-0.891C4.348,-1.805 3.273,-3.082 2.516,-4.719C1.754,-6.352 1.375,-8.234 1.375,-10.359C1.375,-12.422 1.719,-14.297 2.406,-15.984C3.094,-17.672 4.125,-18.961 5.5,-19.859C6.883,-20.766 8.43,-21.219 10.141,-21.219C11.391,-21.219 12.5,-20.953 13.469,-20.422C14.445,-19.891 15.242,-19.203 15.859,-18.359L15.859,-28.641L19.359,-28.641L19.359,0L16.094,0ZM4.984,-10.359C4.984,-7.703 5.539,-5.711 6.656,-4.391C7.781,-3.078 9.102,-2.422 10.625,-2.422C12.164,-2.422 13.473,-3.047 14.547,-4.297C15.617,-5.555 16.156,-7.477 16.156,-10.063C16.156,-12.895 15.609,-14.973 14.516,-16.297C13.422,-17.629 12.07,-18.297 10.469,-18.297C8.906,-18.297 7.598,-17.656 6.547,-16.375C5.504,-15.102 4.984,-13.098 4.984,-10.359Z" style="fill-rule:nonzero;"/>
                </g>
            </g>
        </g>
        <g transform="matrix(1.50553,0,0,1.80583,101.2,459.383)">
            <g>
                <g>
                    <path d="M16.844,-6.688L20.469,-6.234C19.895,-4.109 18.832,-2.457 17.281,-1.281C15.738,-0.113 13.758,0.469 11.344,0.469C8.313,0.469 5.906,-0.461 4.125,-2.328C2.352,-4.203 1.469,-6.828 1.469,-10.203C1.469,-13.691 2.363,-16.398 4.156,-18.328C5.957,-20.254 8.289,-21.219 11.156,-21.219C13.926,-21.219 16.191,-20.27 17.953,-18.375C19.711,-16.488 20.594,-13.832 20.594,-10.406C20.594,-10.195 20.582,-9.883 20.563,-9.469L5.094,-9.469C5.227,-7.195 5.875,-5.453 7.031,-4.234C8.188,-3.023 9.633,-2.422 11.375,-2.422C12.656,-2.422 13.75,-2.758 14.656,-3.438C15.57,-4.113 16.301,-5.195 16.844,-6.688ZM5.297,-12.359L16.875,-12.359C16.719,-14.109 16.273,-15.422 15.547,-16.297C14.43,-17.648 12.977,-18.328 11.188,-18.328C9.57,-18.328 8.211,-17.785 7.109,-16.703C6.016,-15.617 5.41,-14.172 5.297,-12.359Z" style="fill-rule:nonzero;"/>
                </g>
            </g>
        </g>
        <g transform="matrix(1.50553,0,0,1.80583,148.096,459.383)">
            <g>
                <g>
                    <path d="M-0.063,0L10.938,-28.641L15.016,-28.641L26.734,0L22.422,0L19.078,-8.672L7.109,-8.672L3.969,0L-0.063,0ZM8.203,-11.766L17.906,-11.766L14.922,-19.688C14.016,-22.094 13.336,-24.07 12.891,-25.625C12.523,-23.789 12.008,-21.969 11.344,-20.156L8.203,-11.766Z" style="fill-rule:nonzero;"/>
                </g>
            </g>
        </g>
        <g transform="matrix(1.50553,0,0,1.80583,464.171,939.217)">
            <g>
                <g>
                    <path d="M1.797,-9.203L5.375,-9.516C5.539,-8.078 5.93,-6.898 6.547,-5.984C7.172,-5.066 8.133,-4.32 9.438,-3.75C10.738,-3.188 12.203,-2.906 13.828,-2.906C15.273,-2.906 16.551,-3.117 17.656,-3.547C18.758,-3.984 19.582,-4.578 20.125,-5.328C20.664,-6.078 20.938,-6.895 20.938,-7.781C20.938,-8.676 20.676,-9.457 20.156,-10.125C19.633,-10.801 18.773,-11.363 17.578,-11.813C16.805,-12.113 15.102,-12.578 12.469,-13.203C9.844,-13.836 8.004,-14.438 6.953,-15C5.586,-15.719 4.566,-16.609 3.891,-17.672C3.223,-18.734 2.891,-19.922 2.891,-21.234C2.891,-22.68 3.301,-24.031 4.125,-25.281C4.945,-26.539 6.145,-27.492 7.719,-28.141C9.289,-28.797 11.039,-29.125 12.969,-29.125C15.094,-29.125 16.961,-28.781 18.578,-28.094C20.203,-27.414 21.453,-26.41 22.328,-25.078C23.203,-23.754 23.672,-22.25 23.734,-20.563L20.094,-20.297C19.906,-22.109 19.242,-23.473 18.109,-24.391C16.984,-25.316 15.32,-25.781 13.125,-25.781C10.832,-25.781 9.16,-25.359 8.109,-24.516C7.066,-23.68 6.547,-22.672 6.547,-21.484C6.547,-20.453 6.914,-19.609 7.656,-18.953C8.383,-18.285 10.285,-17.602 13.359,-16.906C16.441,-16.207 18.555,-15.598 19.703,-15.078C21.367,-14.305 22.598,-13.332 23.391,-12.156C24.191,-10.977 24.594,-9.625 24.594,-8.094C24.594,-6.563 24.156,-5.125 23.281,-3.781C22.406,-2.438 21.148,-1.391 19.516,-0.641C17.891,0.109 16.051,0.484 14,0.484C11.414,0.484 9.242,0.109 7.484,-0.641C5.734,-1.398 4.359,-2.535 3.359,-4.047C2.367,-5.566 1.848,-7.285 1.797,-9.203Z" style="fill-rule:nonzero;"/>
                </g>
            </g>
        </g>
        <g transform="matrix(1.50553,0,0,1.80583,504.334,939.217)">
            <g>
                <g>
                    <path d="M2.656,-24.594L2.656,-28.641L6.172,-28.641L6.172,-24.594L2.656,-24.594ZM2.656,0L2.656,-20.75L6.172,-20.75L6.172,0L2.656,0Z" style="fill-rule:nonzero;"/>
                </g>
            </g>
        </g>
        <g transform="matrix(1.50553,0,0,1.80583,517.712,939.217)">
            <g>
                <g>
                    <path d="M16.094,0L16.094,-2.625C14.781,-0.563 12.848,0.469 10.297,0.469C8.641,0.469 7.117,0.016 5.734,-0.891C4.348,-1.805 3.273,-3.082 2.516,-4.719C1.754,-6.352 1.375,-8.234 1.375,-10.359C1.375,-12.422 1.719,-14.297 2.406,-15.984C3.094,-17.672 4.125,-18.961 5.5,-19.859C6.883,-20.766 8.43,-21.219 10.141,-21.219C11.391,-21.219 12.5,-20.953 13.469,-20.422C14.445,-19.891 15.242,-19.203 15.859,-18.359L15.859,-28.641L19.359,-28.641L19.359,0L16.094,0ZM4.984,-10.359C4.984,-7.703 5.539,-5.711 6.656,-4.391C7.781,-3.078 9.102,-2.422 10.625,-2.422C12.164,-2.422 13.473,-3.047 14.547,-4.297C15.617,-5.555 16.156,-7.477 16.156,-10.063C16.156,-12.895 15.609,-14.973 14.516,-16.297C13.422,-17.629 12.07,-18.297 10.469,-18.297C8.906,-18.297 7.598,-17.656 6.547,-16.375C5.504,-15.102 4.984,-13.098 4.984,-10.359Z" style="fill-rule:nonzero;"/>
                </g>
            </g>
        </g>
        <g transform="matrix(1.50553,0,0,1.80583,551.201,939.217)">
            <g>
                <g>
                    <path d="M16.844,-6.688L20.469,-6.234C19.895,-4.109 18.832,-2.457 17.281,-1.281C15.738,-0.113 13.758,0.469 11.344,0.469C8.313,0.469 5.906,-0.461 4.125,-2.328C2.352,-4.203 1.469,-6.828 1.469,-10.203C1.469,-13.691 2.363,-16.398 4.156,-18.328C5.957,-20.254 8.289,-21.219 11.156,-21.219C13.926,-21.219 16.191,-20.27 17.953,-18.375C19.711,-16.488 20.594,-13.832 20.594,-10.406C20.594,-10.195 20.582,-9.883 20.563,-9.469L5.094,-9.469C5.227,-7.195 5.875,-5.453 7.031,-4.234C8.188,-3.023 9.633,-2.422 11.375,-2.422C12.656,-2.422 13.75,-2.758 14.656,-3.438C15.57,-4.113 16.301,-5.195 16.844,-6.688ZM5.297,-12.359L16.875,-12.359C16.719,-14.109 16.273,-15.422 15.547,-16.297C14.43,-17.648 12.977,-18.328 11.188,-18.328C9.57,-18.328 8.211,-17.785 7.109,-16.703C6.016,-15.617 5.41,-14.172 5.297,-12.359Z" style="fill-rule:nonzero;"/>
                </g>
            </g>
        </g>
        <g transform="matrix(1.50553,0,0,1.80583,601.419,939.217)">
            <g>
                <g>
                    <path d="M2.938,0L2.938,-28.641L13.672,-28.641C15.859,-28.641 17.613,-28.348 18.938,-27.766C20.258,-27.18 21.297,-26.285 22.047,-25.078C22.797,-23.879 23.172,-22.625 23.172,-21.313C23.172,-20.082 22.836,-18.926 22.172,-17.844C21.504,-16.77 20.5,-15.898 19.156,-15.234C20.895,-14.723 22.227,-13.852 23.156,-12.625C24.082,-11.406 24.547,-9.961 24.547,-8.297C24.547,-6.961 24.266,-5.719 23.703,-4.563C23.141,-3.406 22.441,-2.516 21.609,-1.891C20.773,-1.266 19.727,-0.789 18.469,-0.469C17.207,-0.156 15.664,0 13.844,0L2.938,0ZM6.719,-16.609L12.906,-16.609C14.594,-16.609 15.801,-16.719 16.531,-16.938C17.488,-17.219 18.211,-17.691 18.703,-18.359C19.191,-19.023 19.438,-19.859 19.438,-20.859C19.438,-21.805 19.207,-22.641 18.75,-23.359C18.289,-24.086 17.641,-24.582 16.797,-24.844C15.953,-25.113 14.5,-25.25 12.438,-25.25L6.719,-25.25L6.719,-16.609ZM6.719,-3.375L13.844,-3.375C15.07,-3.375 15.93,-3.422 16.422,-3.516C17.297,-3.672 18.023,-3.93 18.609,-4.297C19.203,-4.66 19.688,-5.191 20.063,-5.891C20.438,-6.586 20.625,-7.391 20.625,-8.297C20.625,-9.367 20.348,-10.297 19.797,-11.078C19.254,-11.867 18.5,-12.422 17.531,-12.734C16.563,-13.055 15.164,-13.219 13.344,-13.219L6.719,-13.219L6.719,-3.375Z" style="fill-rule:nonzero;"/>
                </g>
            </g>
        </g>
        <g transform="matrix(1.50553,0,0,1.80583,552.906,373.607)">
            <g>
                <g>
                    <path d="M3.203,0L3.203,-28.641L7,-28.641L7,-16.875L21.875,-16.875L21.875,-28.641L25.672,-28.641L25.672,0L21.875,0L21.875,-13.5L7,-13.5L7,0L3.203,0Z" style="fill-rule:nonzero;"/>
                </g>
            </g>
        </g>
        <g transform="matrix(1.50553,0,0,1.80583,596.391,373.607)">
            <g>
                <g>
                    <path d="M2.484,7.984L2.094,4.688C2.863,4.895 3.535,5 4.109,5C4.891,5 5.516,4.867 5.984,4.609C6.453,4.348 6.832,3.984 7.125,3.516C7.352,3.16 7.711,2.289 8.203,0.906C8.266,0.707 8.367,0.422 8.516,0.047L0.641,-20.75L4.438,-20.75L8.75,-8.734C9.313,-7.211 9.813,-5.609 10.25,-3.922C10.656,-5.535 11.141,-7.113 11.703,-8.656L16.141,-20.75L19.656,-20.75L11.766,0.359C10.91,2.629 10.25,4.195 9.781,5.063C9.156,6.219 8.438,7.066 7.625,7.609C6.82,8.148 5.863,8.422 4.75,8.422C4.07,8.422 3.316,8.273 2.484,7.984Z" style="fill-rule:nonzero;"/>
                </g>
            </g>
        </g>
        <g transform="matrix(1.50553,0,0,1.80583,626.499,373.607)">
            <g>
                <g>
                    <path d="M2.641,7.953L2.641,-20.75L5.844,-20.75L5.844,-18.047C6.594,-19.098 7.441,-19.891 8.391,-20.422C9.348,-20.953 10.504,-21.219 11.859,-21.219C13.629,-21.219 15.191,-20.758 16.547,-19.844C17.898,-18.938 18.922,-17.648 19.609,-15.984C20.297,-14.328 20.641,-12.508 20.641,-10.531C20.641,-8.406 20.258,-6.492 19.5,-4.797C18.738,-3.098 17.629,-1.797 16.172,-0.891C14.723,0.016 13.203,0.469 11.609,0.469C10.43,0.469 9.375,0.223 8.438,-0.266C7.508,-0.766 6.75,-1.395 6.156,-2.156L6.156,7.953L2.641,7.953ZM5.828,-10.25C5.828,-7.582 6.363,-5.609 7.438,-4.328C8.52,-3.055 9.832,-2.422 11.375,-2.422C12.938,-2.422 14.27,-3.082 15.375,-4.406C16.488,-5.727 17.047,-7.773 17.047,-10.547C17.047,-13.191 16.504,-15.172 15.422,-16.484C14.336,-17.797 13.039,-18.453 11.531,-18.453C10.031,-18.453 8.703,-17.754 7.547,-16.359C6.398,-14.961 5.828,-12.926 5.828,-10.25Z" style="fill-rule:nonzero;"/>
                </g>
            </g>
        </g>
        <g transform="matrix(1.50553,0,0,1.80583,659.988,373.607)">
            <g>
                <g>
                    <path d="M1.328,-10.375C1.328,-14.219 2.395,-17.063 4.531,-18.906C6.313,-20.445 8.488,-21.219 11.063,-21.219C13.906,-21.219 16.234,-20.281 18.047,-18.406C19.859,-16.539 20.766,-13.961 20.766,-10.672C20.766,-7.992 20.363,-5.891 19.563,-4.359C18.758,-2.836 17.594,-1.648 16.063,-0.797C14.531,0.047 12.863,0.469 11.063,0.469C8.156,0.469 5.805,-0.461 4.016,-2.328C2.223,-4.191 1.328,-6.875 1.328,-10.375ZM4.938,-10.375C4.938,-7.719 5.516,-5.727 6.672,-4.406C7.836,-3.082 9.301,-2.422 11.063,-2.422C12.801,-2.422 14.25,-3.082 15.406,-4.406C16.57,-5.738 17.156,-7.766 17.156,-10.484C17.156,-13.055 16.57,-15 15.406,-16.313C14.238,-17.633 12.789,-18.297 11.063,-18.297C9.301,-18.297 7.836,-17.641 6.672,-16.328C5.516,-15.016 4.938,-13.031 4.938,-10.375Z" style="fill-rule:nonzero;"/>
                </g>
            </g>
        </g>
        <g transform="matrix(1.50553,0,0,1.80583,693.477,373.607)">
            <g>
                <g>
                    <path d="M10.313,-3.141L10.828,-0.047C9.836,0.172 8.953,0.281 8.172,0.281C6.891,0.281 5.895,0.078 5.188,-0.328C4.488,-0.734 3.992,-1.266 3.703,-1.922C3.422,-2.578 3.281,-3.961 3.281,-6.078L3.281,-18.016L0.703,-18.016L0.703,-20.75L3.281,-20.75L3.281,-25.875L6.781,-27.984L6.781,-20.75L10.313,-20.75L10.313,-18.016L6.781,-18.016L6.781,-5.875C6.781,-4.875 6.844,-4.227 6.969,-3.938C7.094,-3.656 7.289,-3.43 7.563,-3.266C7.844,-3.098 8.242,-3.016 8.766,-3.016C9.16,-3.016 9.676,-3.055 10.313,-3.141Z" style="fill-rule:nonzero;"/>
                </g>
            </g>
        </g>
        <g transform="matrix(1.50553,0,0,1.80583,710.206,373.607)">
            <g>
                <g>
                    <path d="M16.844,-6.688L20.469,-6.234C19.895,-4.109 18.832,-2.457 17.281,-1.281C15.738,-0.113 13.758,0.469 11.344,0.469C8.313,0.469 5.906,-0.461 4.125,-2.328C2.352,-4.203 1.469,-6.828 1.469,-10.203C1.469,-13.691 2.363,-16.398 4.156,-18.328C5.957,-20.254 8.289,-21.219 11.156,-21.219C13.926,-21.219 16.191,-20.27 17.953,-18.375C19.711,-16.488 20.594,-13.832 20.594,-10.406C20.594,-10.195 20.582,-9.883 20.563,-9.469L5.094,-9.469C5.227,-7.195 5.875,-5.453 7.031,-4.234C8.188,-3.023 9.633,-2.422 11.375,-2.422C12.656,-2.422 13.75,-2.758 14.656,-3.438C15.57,-4.113 16.301,-5.195 16.844,-6.688ZM5.297,-12.359L16.875,-12.359C16.719,-14.109 16.273,-15.422 15.547,-16.297C14.43,-17.648 12.977,-18.328 11.188,-18.328C9.57,-18.328 8.211,-17.785 7.109,-16.703C6.016,-15.617 5.41,-14.172 5.297,-12.359Z" style="fill-rule:nonzero;"/>
                </g>
            </g>
        </g>
        <g transform="matrix(1.50553,0,0,1.80583,743.695,373.607)">
            <g>
                <g>
                    <path d="M2.641,0L2.641,-20.75L5.797,-20.75L5.797,-17.797C7.328,-20.078 9.531,-21.219 12.406,-21.219C13.656,-21.219 14.801,-20.988 15.844,-20.531C16.895,-20.082 17.68,-19.492 18.203,-18.766C18.723,-18.035 19.086,-17.172 19.297,-16.172C19.43,-15.523 19.5,-14.383 19.5,-12.75L19.5,0L15.984,0L15.984,-12.625C15.984,-14.051 15.844,-15.117 15.563,-15.828C15.289,-16.535 14.805,-17.102 14.109,-17.531C13.41,-17.957 12.594,-18.172 11.656,-18.172C10.164,-18.172 8.875,-17.691 7.781,-16.734C6.695,-15.785 6.156,-13.984 6.156,-11.328L6.156,0L2.641,0Z" style="fill-rule:nonzero;"/>
                </g>
            </g>
        </g>
        <g transform="matrix(1.50553,0,0,1.80583,777.184,373.607)">
            <g>
                <g>
                    <path d="M16.234,0L16.234,-3.047C14.617,-0.703 12.426,0.469 9.656,0.469C8.426,0.469 7.281,0.234 6.219,-0.234C5.156,-0.703 4.367,-1.289 3.859,-2C3.348,-2.707 2.988,-3.578 2.781,-4.609C2.633,-5.297 2.563,-6.391 2.563,-7.891L2.563,-20.75L6.078,-20.75L6.078,-9.234C6.078,-7.398 6.148,-6.164 6.297,-5.531C6.516,-4.602 6.977,-3.875 7.688,-3.344C8.406,-2.82 9.297,-2.563 10.359,-2.563C11.41,-2.563 12.395,-2.832 13.313,-3.375C14.238,-3.914 14.895,-4.648 15.281,-5.578C15.664,-6.504 15.859,-7.852 15.859,-9.625L15.859,-20.75L19.375,-20.75L19.375,0L16.234,0Z" style="fill-rule:nonzero;"/>
                </g>
            </g>
        </g>
        <g transform="matrix(1.50553,0,0,1.80583,810.673,373.607)">
            <g>
                <g>
                    <path d="M1.234,-6.188L4.703,-6.734C4.898,-5.348 5.441,-4.281 6.328,-3.531C7.223,-2.789 8.473,-2.422 10.078,-2.422C11.691,-2.422 12.891,-2.75 13.672,-3.406C14.453,-4.063 14.844,-4.832 14.844,-5.719C14.844,-6.52 14.5,-7.145 13.813,-7.594C13.332,-7.906 12.133,-8.305 10.219,-8.797C7.633,-9.441 5.844,-10 4.844,-10.469C3.852,-10.945 3.098,-11.609 2.578,-12.453C2.066,-13.297 1.813,-14.223 1.813,-15.234C1.813,-16.16 2.023,-17.016 2.453,-17.797C2.879,-18.586 3.457,-19.242 4.188,-19.766C4.727,-20.172 5.469,-20.516 6.406,-20.797C7.352,-21.078 8.367,-21.219 9.453,-21.219C11.078,-21.219 12.504,-20.984 13.734,-20.516C14.973,-20.047 15.883,-19.41 16.469,-18.609C17.051,-17.805 17.453,-16.734 17.672,-15.391L14.234,-14.922C14.078,-15.992 13.625,-16.828 12.875,-17.422C12.133,-18.023 11.078,-18.328 9.703,-18.328C8.086,-18.328 6.938,-18.055 6.25,-17.516C5.563,-16.984 5.219,-16.359 5.219,-15.641C5.219,-15.191 5.359,-14.785 5.641,-14.422C5.93,-14.035 6.383,-13.723 7,-13.484C7.344,-13.348 8.375,-13.047 10.094,-12.578C12.582,-11.91 14.316,-11.363 15.297,-10.938C16.285,-10.52 17.055,-9.906 17.609,-9.094C18.172,-8.289 18.453,-7.289 18.453,-6.094C18.453,-4.926 18.109,-3.82 17.422,-2.781C16.742,-1.75 15.758,-0.945 14.469,-0.375C13.188,0.188 11.727,0.469 10.094,0.469C7.406,0.469 5.352,-0.086 3.938,-1.203C2.52,-2.328 1.617,-3.988 1.234,-6.188Z" style="fill-rule:nonzero;"/>
                </g>
            </g>
        </g>
        <g transform="matrix(1.50553,0,0,1.80583,840.781,373.607)">
            <g>
                <g>
                    <path d="M16.844,-6.688L20.469,-6.234C19.895,-4.109 18.832,-2.457 17.281,-1.281C15.738,-0.113 13.758,0.469 11.344,0.469C8.313,0.469 5.906,-0.461 4.125,-2.328C2.352,-4.203 1.469,-6.828 1.469,-10.203C1.469,-13.691 2.363,-16.398 4.156,-18.328C5.957,-20.254 8.289,-21.219 11.156,-21.219C13.926,-21.219 16.191,-20.27 17.953,-18.375C19.711,-16.488 20.594,-13.832 20.594,-10.406C20.594,-10.195 20.582,-9.883 20.563,-9.469L5.094,-9.469C5.227,-7.195 5.875,-5.453 7.031,-4.234C8.188,-3.023 9.633,-2.422 11.375,-2.422C12.656,-2.422 13.75,-2.758 14.656,-3.438C15.57,-4.113 16.301,-5.195 16.844,-6.688ZM5.297,-12.359L16.875,-12.359C16.719,-14.109 16.273,-15.422 15.547,-16.297C14.43,-17.648 12.977,-18.328 11.188,-18.328C9.57,-18.328 8.211,-17.785 7.109,-16.703C6.016,-15.617 5.41,-14.172 5.297,-12.359Z" style="fill-rule:nonzero;"/>
                </g>
            </g>
        </g>
        <g transform="matrix(1.50553,0,0,1.80583,260.355,270.211)">
            <g>
                <g>
                    <path d="M-0.078,0L13.672,-35.797L18.781,-35.797L33.422,0L28.031,0L23.859,-10.844L8.891,-10.844L4.953,0L-0.078,0ZM10.25,-14.703L22.391,-14.703L18.656,-24.609C17.508,-27.617 16.66,-30.094 16.109,-32.031C15.66,-29.738 15.02,-27.461 14.188,-25.203L10.25,-14.703Z" style="fill-rule:nonzero;"/>
                </g>
            </g>
        </g>
        <g transform="matrix(1.50553,0,0,1.80583,688.492,781.094)">
            <g>
                <g>
                    <path d="M3.656,0L3.656,-35.797L17.094,-35.797C19.82,-35.797 22.008,-35.43 23.656,-34.703C25.313,-33.984 26.609,-32.867 27.547,-31.359C28.484,-29.859 28.953,-28.285 28.953,-26.641C28.953,-25.109 28.535,-23.664 27.703,-22.313C26.879,-20.957 25.629,-19.867 23.953,-19.047C26.117,-18.41 27.781,-17.328 28.938,-15.797C30.102,-14.266 30.688,-12.457 30.688,-10.375C30.688,-8.695 30.332,-7.141 29.625,-5.703C28.914,-4.266 28.039,-3.156 27,-2.375C25.957,-1.594 24.648,-1 23.078,-0.594C21.516,-0.195 19.594,0 17.313,0L3.656,0ZM8.406,-20.75L16.141,-20.75C18.234,-20.75 19.738,-20.891 20.656,-21.172C21.863,-21.523 22.77,-22.113 23.375,-22.938C23.988,-23.77 24.297,-24.816 24.297,-26.078C24.297,-27.266 24.008,-28.305 23.438,-29.203C22.863,-30.109 22.047,-30.727 20.984,-31.063C19.93,-31.395 18.117,-31.563 15.547,-31.563L8.406,-31.563L8.406,-20.75ZM8.406,-4.219L17.313,-4.219C18.844,-4.219 19.914,-4.273 20.531,-4.391C21.625,-4.586 22.535,-4.914 23.266,-5.375C23.992,-5.832 24.594,-6.492 25.063,-7.359C25.539,-8.234 25.781,-9.238 25.781,-10.375C25.781,-11.707 25.438,-12.863 24.75,-13.844C24.07,-14.832 23.125,-15.523 21.906,-15.922C20.695,-16.328 18.953,-16.531 16.672,-16.531L8.406,-16.531L8.406,-4.219Z" style="fill-rule:nonzero;"/>
                </g>
            </g>
        </g>
    </g>
</svg>
