<svg xmlns="http://www.w3.org/2000/svg" xmlns:xlink="http://www.w3.org/1999/xlink" width="800" zoomAndPan="magnify" viewBox="0 0 600 383.249997" height="511" preserveAspectRatio="xMidYMid meet" version="1.0"><defs><clipPath id="1c2c62edb6"><path d="M 0.585938 0 L 599.414062 0 L 599.414062 382.5 L 0.585938 382.5 Z M 0.585938 0 " clip-rule="nonzero"/></clipPath><linearGradient x1="72.25" gradientTransform="matrix(0.748535, 0, 0, 0.748535, 0.58594, 0.00000998047)" y1="-72.25" x2="727.749973" gradientUnits="userSpaceOnUse" y2="583.249973" id="4252051af1"><stop stop-opacity="1" stop-color="rgb(31.369019%, 29.798889%, 29.798889%)" offset="0"/><stop stop-opacity="1" stop-color="rgb(31.227112%, 29.670715%, 29.670715%)" offset="0.015625"/><stop stop-opacity="1" stop-color="rgb(30.94635%, 29.412842%, 29.412842%)" offset="0.03125"/><stop stop-opacity="1" stop-color="rgb(30.664062%, 29.154968%, 29.154968%)" offset="0.046875"/><stop stop-opacity="1" stop-color="rgb(30.381775%, 28.898621%, 28.898621%)" offset="0.0625"/><stop stop-opacity="1" stop-color="rgb(30.099487%, 28.640747%, 28.640747%)" offset="0.078125"/><stop stop-opacity="1" stop-color="rgb(29.818726%, 28.382874%, 28.382874%)" offset="0.09375"/><stop stop-opacity="1" stop-color="rgb(29.536438%, 28.126526%, 28.126526%)" offset="0.109375"/><stop stop-opacity="1" stop-color="rgb(29.25415%, 27.868652%, 27.868652%)" offset="0.125"/><stop stop-opacity="1" stop-color="rgb(28.973389%, 27.610779%, 27.610779%)" offset="0.140625"/><stop stop-opacity="1" stop-color="rgb(28.691101%, 27.354431%, 27.354431%)" offset="0.15625"/><stop stop-opacity="1" stop-color="rgb(28.408813%, 27.096558%, 27.096558%)" offset="0.171875"/><stop stop-opacity="1" stop-color="rgb(28.126526%, 26.838684%, 26.838684%)" offset="0.1875"/><stop stop-opacity="1" stop-color="rgb(27.845764%, 26.582336%, 26.582336%)" offset="0.203125"/><stop stop-opacity="1" stop-color="rgb(27.563477%, 26.324463%, 26.324463%)" offset="0.21875"/><stop stop-opacity="1" stop-color="rgb(27.281189%, 26.066589%, 26.066589%)" offset="0.234375"/><stop stop-opacity="1" stop-color="rgb(26.998901%, 25.810242%, 25.810242%)" offset="0.25"/><stop stop-opacity="1" stop-color="rgb(26.71814%, 25.552368%, 25.552368%)" offset="0.265625"/><stop stop-opacity="1" stop-color="rgb(26.435852%, 25.294495%, 25.294495%)" offset="0.28125"/><stop stop-opacity="1" stop-color="rgb(26.153564%, 25.038147%, 25.038147%)" offset="0.296875"/><stop stop-opacity="1" stop-color="rgb(25.872803%, 24.780273%, 24.780273%)" offset="0.3125"/><stop stop-opacity="1" stop-color="rgb(25.590515%, 24.523926%, 24.523926%)" offset="0.328125"/><stop stop-opacity="1" stop-color="rgb(25.308228%, 24.266052%, 24.266052%)" offset="0.34375"/><stop stop-opacity="1" stop-color="rgb(25.02594%, 24.008179%, 24.008179%)" offset="0.359375"/><stop stop-opacity="1" stop-color="rgb(24.745178%, 23.751831%, 23.751831%)" offset="0.375"/><stop stop-opacity="1" stop-color="rgb(24.462891%, 23.493958%, 23.493958%)" offset="0.389779"/><stop stop-opacity="1" stop-color="rgb(24.32251%, 23.365784%, 23.365784%)" offset="0.390625"/><stop stop-opacity="1" stop-color="rgb(24.180603%, 23.236084%, 23.236084%)" offset="0.40625"/><stop stop-opacity="1" stop-color="rgb(23.898315%, 22.979736%, 22.979736%)" offset="0.421875"/><stop stop-opacity="1" stop-color="rgb(23.617554%, 22.721863%, 22.721863%)" offset="0.4375"/><stop stop-opacity="1" stop-color="rgb(23.335266%, 22.463989%, 22.463989%)" offset="0.453125"/><stop stop-opacity="1" stop-color="rgb(23.052979%, 22.207642%, 22.207642%)" offset="0.46875"/><stop stop-opacity="1" stop-color="rgb(22.772217%, 21.949768%, 21.949768%)" offset="0.484375"/><stop stop-opacity="1" stop-color="rgb(22.489929%, 21.691895%, 21.691895%)" offset="0.5"/><stop stop-opacity="1" stop-color="rgb(22.207642%, 21.435547%, 21.435547%)" offset="0.515625"/><stop stop-opacity="1" stop-color="rgb(21.925354%, 21.177673%, 21.177673%)" offset="0.53125"/><stop stop-opacity="1" stop-color="rgb(21.644592%, 20.9198%, 20.9198%)" offset="0.546875"/><stop stop-opacity="1" stop-color="rgb(21.362305%, 20.663452%, 20.663452%)" offset="0.5625"/><stop stop-opacity="1" stop-color="rgb(21.080017%, 20.405579%, 20.405579%)" offset="0.578125"/><stop stop-opacity="1" stop-color="rgb(20.797729%, 20.147705%, 20.147705%)" offset="0.59375"/><stop stop-opacity="1" stop-color="rgb(20.516968%, 19.891357%, 19.891357%)" offset="0.609375"/><stop stop-opacity="1" stop-color="rgb(20.23468%, 19.633484%, 19.633484%)" offset="0.610221"/><stop stop-opacity="1" stop-color="rgb(20.094299%, 19.50531%, 19.50531%)" offset="0.625"/><stop stop-opacity="1" stop-color="rgb(19.952393%, 19.37561%, 19.37561%)" offset="0.640625"/><stop stop-opacity="1" stop-color="rgb(19.671631%, 19.119263%, 19.119263%)" offset="0.65625"/><stop stop-opacity="1" stop-color="rgb(19.389343%, 18.861389%, 18.861389%)" offset="0.671875"/><stop stop-opacity="1" stop-color="rgb(19.107056%, 18.605042%, 18.605042%)" offset="0.6875"/><stop stop-opacity="1" stop-color="rgb(18.824768%, 18.347168%, 18.347168%)" offset="0.703125"/><stop stop-opacity="1" stop-color="rgb(18.544006%, 18.089294%, 18.089294%)" offset="0.71875"/><stop stop-opacity="1" stop-color="rgb(18.261719%, 17.832947%, 17.832947%)" offset="0.734375"/><stop stop-opacity="1" stop-color="rgb(17.979431%, 17.575073%, 17.575073%)" offset="0.75"/><stop stop-opacity="1" stop-color="rgb(17.697144%, 17.3172%, 17.3172%)" offset="0.765625"/><stop stop-opacity="1" stop-color="rgb(17.416382%, 17.060852%, 17.060852%)" offset="0.78125"/><stop stop-opacity="1" stop-color="rgb(17.134094%, 16.802979%, 16.802979%)" offset="0.796875"/><stop stop-opacity="1" stop-color="rgb(16.851807%, 16.545105%, 16.545105%)" offset="0.8125"/><stop stop-opacity="1" stop-color="rgb(16.569519%, 16.288757%, 16.288757%)" offset="0.828125"/><stop stop-opacity="1" stop-color="rgb(16.288757%, 16.030884%, 16.030884%)" offset="0.84375"/><stop stop-opacity="1" stop-color="rgb(16.00647%, 15.77301%, 15.77301%)" offset="0.859375"/><stop stop-opacity="1" stop-color="rgb(15.724182%, 15.516663%, 15.516663%)" offset="0.875"/><stop stop-opacity="1" stop-color="rgb(15.44342%, 15.258789%, 15.258789%)" offset="0.890625"/><stop stop-opacity="1" stop-color="rgb(15.161133%, 15.000916%, 15.000916%)" offset="0.90625"/><stop stop-opacity="1" stop-color="rgb(14.878845%, 14.744568%, 14.744568%)" offset="0.921875"/><stop stop-opacity="1" stop-color="rgb(14.596558%, 14.486694%, 14.486694%)" offset="0.9375"/><stop stop-opacity="1" stop-color="rgb(14.315796%, 14.228821%, 14.228821%)" offset="0.953125"/><stop stop-opacity="1" stop-color="rgb(14.033508%, 13.972473%, 13.972473%)" offset="0.96875"/><stop stop-opacity="1" stop-color="rgb(13.751221%, 13.7146%, 13.7146%)" offset="0.984375"/><stop stop-opacity="1" stop-color="rgb(13.468933%, 13.456726%, 13.456726%)" offset="1"/></linearGradient><clipPath id="82073e619e"><path d="M 521.902344 58.082031 L 585.527344 58.082031 L 585.527344 368.722656 L 521.902344 368.722656 Z M 521.902344 58.082031 " clip-rule="nonzero"/></clipPath></defs><g clip-path="url(#1c2c62edb6)"><path fill="#ffffff" d="M 0.585938 0 L 599.414062 0 L 599.414062 382.5 L 0.585938 382.5 Z M 0.585938 0 " fill-opacity="1" fill-rule="nonzero"/><path fill="url(#4252051af1)" d="M 0.585938 0 L 0.585938 382.5 L 599.414062 382.5 L 599.414062 0 Z M 0.585938 0 " fill-rule="nonzero"/></g><g clip-path="url(#82073e619e)"><path fill="#ffffff" d="M 526.023438 62.738281 L 526.023438 77.128906 L 549.023438 77.128906 C 551.621094 77.128906 554.96875 76.648438 554.96875 79.007812 C 554.96875 81.367188 551.773438 80.886719 549.179688 80.886719 L 526.023438 80.886719 C 526.023438 86.3125 526.023438 91.734375 526.023438 97.15625 C 529.691406 97.515625 539.011719 95.277344 538.851562 99.191406 C 538.703125 102.878906 529.703125 100.289062 526.023438 101.070312 C 526.023438 106.023438 526.023438 110.976562 526.023438 115.929688 L 549.023438 115.929688 C 551.621094 115.929688 554.96875 115.445312 554.96875 117.808594 C 554.96875 120.167969 551.773438 119.6875 549.179688 119.6875 L 526.023438 119.6875 C 526.023438 124.640625 526.023438 129.59375 526.023438 134.550781 C 529.691406 134.90625 539.011719 132.667969 538.851562 136.582031 C 538.699219 140.273438 529.703125 137.683594 526.023438 138.460938 C 526.023438 143.414062 526.023438 148.367188 526.023438 153.320312 L 549.019531 153.320312 C 551.621094 153.320312 554.964844 152.835938 554.964844 155.203125 C 554.964844 157.554688 551.773438 157.078125 549.175781 157.078125 L 526.023438 157.078125 C 526.023438 162.5 526.023438 167.921875 526.023438 173.34375 C 529.691406 173.707031 539.011719 171.472656 538.851562 175.378906 C 538.699219 179.074219 529.699219 176.480469 526.023438 177.261719 C 526.023438 182.21875 526.023438 187.171875 526.023438 192.125 L 549.019531 192.125 C 551.621094 192.125 554.964844 191.640625 554.964844 194 C 554.964844 196.359375 551.773438 195.882812 549.175781 195.882812 L 526.023438 195.882812 C 526.023438 201.457031 526.023438 207.039062 526.023438 212.617188 C 529.6875 212.976562 539.011719 210.742188 538.851562 214.652344 C 538.699219 218.34375 529.699219 215.75 526.023438 216.527344 C 526.023438 221.480469 526.023438 226.433594 526.023438 231.394531 L 549.019531 231.394531 C 551.628906 231.394531 554.964844 230.890625 554.964844 233.269531 C 554.964844 235.628906 551.769531 235.144531 549.175781 235.144531 L 526.023438 235.144531 C 526.019531 240.566406 526.019531 245.996094 526.019531 251.417969 C 529.6875 251.78125 539.007812 249.535156 538.847656 253.453125 C 538.699219 257.140625 529.699219 254.554688 526.019531 255.328125 C 526.019531 260.28125 526.019531 265.238281 526.019531 270.191406 L 549.019531 270.191406 C 551.628906 270.191406 554.964844 269.695312 554.964844 272.074219 C 554.964844 274.421875 551.769531 273.945312 549.175781 273.945312 L 526.019531 273.945312 C 526.019531 278.898438 526.019531 283.855469 526.019531 288.808594 C 529.6875 289.167969 539.007812 286.925781 538.847656 290.84375 C 538.695312 294.519531 529.695312 291.953125 526.019531 292.71875 C 526.019531 297.671875 526.019531 302.625 526.019531 307.578125 L 549.015625 307.578125 C 551.628906 307.578125 554.960938 307.082031 554.960938 309.460938 C 554.960938 311.820312 551.769531 311.335938 549.171875 311.335938 L 526.019531 311.335938 C 526.019531 316.757812 526.019531 322.1875 526.019531 327.609375 C 529.683594 327.972656 539.007812 325.730469 538.847656 329.648438 C 538.695312 333.3125 529.695312 330.753906 526.019531 331.519531 C 526.019531 336.472656 526.019531 341.429688 526.019531 346.382812 L 549.015625 346.382812 C 551.628906 346.382812 554.960938 345.886719 554.960938 348.253906 C 554.960938 350.625 551.769531 350.136719 549.171875 350.136719 L 526.019531 350.136719 C 526.019531 355.09375 526.019531 360.046875 526.019531 365 L 581.246094 365 C 581.246094 264.09375 581.246094 163.175781 581.246094 62.269531 C 562.886719 62.269531 544.53125 62.269531 526.175781 62.269531 C 525.992188 62.292969 526.003906 62.515625 526.019531 62.738281 Z M 526.652344 58.359375 C 539.746094 57.734375 555.96875 58.359375 570.300781 58.359375 L 577.652344 58.359375 C 580.015625 58.359375 584.125 57.996094 584.851562 58.984375 C 585.613281 60.023438 585.164062 65.488281 585.164062 68.371094 C 585.164062 117.1875 585.164062 165.253906 585.164062 213.875 C 585.164062 260.234375 585.164062 311.53125 585.164062 359.375 C 585.164062 362.835938 585.539062 367.597656 584.695312 368.445312 C 583.671875 369.472656 579.296875 368.914062 577.183594 368.914062 L 529.9375 368.914062 C 527.675781 368.914062 523.425781 369.285156 522.582031 368.445312 C 521.753906 367.617188 522.113281 362.148438 522.113281 359.214844 C 522.117188 284.679688 522.109375 210.179688 522.113281 136.125 C 522.113281 113.671875 522.113281 91.519531 522.113281 68.21875 C 522.113281 65.097656 521.488281 60.269531 522.425781 58.988281 C 523.128906 58.035156 525.265625 58.429688 526.648438 58.363281 " fill-opacity="1" fill-rule="evenodd"/></g></svg>