<svg xmlns="http://www.w3.org/2000/svg" xmlns:xlink="http://www.w3.org/1999/xlink" width="800" zoomAndPan="magnify" viewBox="0 0 600 383.249997" height="511" preserveAspectRatio="xMidYMid meet" version="1.0"><defs><clipPath id="8cf953a354"><path d="M 0.585938 0 L 599.414062 0 L 599.414062 382.5 L 0.585938 382.5 Z M 0.585938 0 " clip-rule="nonzero"/></clipPath><linearGradient x1="72.25" gradientTransform="matrix(0.748535, 0, 0, 0.748535, 0.58594, 0.00000998047)" y1="-72.25" x2="727.749973" gradientUnits="userSpaceOnUse" y2="583.249973" id="f45a1798ed"><stop stop-opacity="1" stop-color="rgb(86.669922%, 36.859131%, 34.118652%)" offset="0"/><stop stop-opacity="1" stop-color="rgb(86.579895%, 36.761475%, 34.020996%)" offset="0.0078125"/><stop stop-opacity="1" stop-color="rgb(86.402893%, 36.564636%, 33.824158%)" offset="0.015625"/><stop stop-opacity="1" stop-color="rgb(86.224365%, 36.369324%, 33.628845%)" offset="0.0234375"/><stop stop-opacity="1" stop-color="rgb(86.047363%, 36.172485%, 33.432007%)" offset="0.03125"/><stop stop-opacity="1" stop-color="rgb(85.868835%, 35.977173%, 33.236694%)" offset="0.0390625"/><stop stop-opacity="1" stop-color="rgb(85.691833%, 35.780334%, 33.039856%)" offset="0.046875"/><stop stop-opacity="1" stop-color="rgb(85.513306%, 35.583496%, 32.844543%)" offset="0.0546875"/><stop stop-opacity="1" stop-color="rgb(85.336304%, 35.388184%, 32.647705%)" offset="0.0625"/><stop stop-opacity="1" stop-color="rgb(85.157776%, 35.191345%, 32.452393%)" offset="0.0703125"/><stop stop-opacity="1" stop-color="rgb(84.980774%, 34.996033%, 32.255554%)" offset="0.078125"/><stop stop-opacity="1" stop-color="rgb(84.802246%, 34.799194%, 32.060242%)" offset="0.0859375"/><stop stop-opacity="1" stop-color="rgb(84.625244%, 34.603882%, 31.863403%)" offset="0.09375"/><stop stop-opacity="1" stop-color="rgb(84.446716%, 34.407043%, 31.668091%)" offset="0.101562"/><stop stop-opacity="1" stop-color="rgb(84.269714%, 34.211731%, 31.471252%)" offset="0.109375"/><stop stop-opacity="1" stop-color="rgb(84.091187%, 34.014893%, 31.27594%)" offset="0.117188"/><stop stop-opacity="1" stop-color="rgb(83.914185%, 33.81958%, 31.079102%)" offset="0.125"/><stop stop-opacity="1" stop-color="rgb(83.735657%, 33.622742%, 30.883789%)" offset="0.132812"/><stop stop-opacity="1" stop-color="rgb(83.558655%, 33.427429%, 30.686951%)" offset="0.140625"/><stop stop-opacity="1" stop-color="rgb(83.380127%, 33.230591%, 30.491638%)" offset="0.148438"/><stop stop-opacity="1" stop-color="rgb(83.203125%, 33.035278%, 30.2948%)" offset="0.15625"/><stop stop-opacity="1" stop-color="rgb(83.024597%, 32.83844%, 30.099487%)" offset="0.164062"/><stop stop-opacity="1" stop-color="rgb(82.847595%, 32.643127%, 29.902649%)" offset="0.171875"/><stop stop-opacity="1" stop-color="rgb(82.670593%, 32.446289%, 29.707336%)" offset="0.179688"/><stop stop-opacity="1" stop-color="rgb(82.492065%, 32.250977%, 29.510498%)" offset="0.1875"/><stop stop-opacity="1" stop-color="rgb(82.315063%, 32.054138%, 29.315186%)" offset="0.195312"/><stop stop-opacity="1" stop-color="rgb(82.136536%, 31.858826%, 29.118347%)" offset="0.203125"/><stop stop-opacity="1" stop-color="rgb(81.959534%, 31.661987%, 28.923035%)" offset="0.210938"/><stop stop-opacity="1" stop-color="rgb(81.781006%, 31.466675%, 28.726196%)" offset="0.21875"/><stop stop-opacity="1" stop-color="rgb(81.604004%, 31.269836%, 28.530884%)" offset="0.226562"/><stop stop-opacity="1" stop-color="rgb(81.425476%, 31.074524%, 28.334045%)" offset="0.234375"/><stop stop-opacity="1" stop-color="rgb(81.248474%, 30.877686%, 28.138733%)" offset="0.242188"/><stop stop-opacity="1" stop-color="rgb(81.069946%, 30.682373%, 27.941895%)" offset="0.25"/><stop stop-opacity="1" stop-color="rgb(80.892944%, 30.485535%, 27.745056%)" offset="0.257812"/><stop stop-opacity="1" stop-color="rgb(80.714417%, 30.290222%, 27.549744%)" offset="0.265625"/><stop stop-opacity="1" stop-color="rgb(80.537415%, 30.093384%, 27.352905%)" offset="0.273438"/><stop stop-opacity="1" stop-color="rgb(80.358887%, 29.898071%, 27.157593%)" offset="0.28125"/><stop stop-opacity="1" stop-color="rgb(80.181885%, 29.701233%, 26.960754%)" offset="0.289062"/><stop stop-opacity="1" stop-color="rgb(80.003357%, 29.50592%, 26.765442%)" offset="0.296875"/><stop stop-opacity="1" stop-color="rgb(79.826355%, 29.309082%, 26.568604%)" offset="0.304688"/><stop stop-opacity="1" stop-color="rgb(79.647827%, 29.11377%, 26.373291%)" offset="0.3125"/><stop stop-opacity="1" stop-color="rgb(79.470825%, 28.916931%, 26.176453%)" offset="0.320312"/><stop stop-opacity="1" stop-color="rgb(79.292297%, 28.721619%, 25.98114%)" offset="0.328125"/><stop stop-opacity="1" stop-color="rgb(79.115295%, 28.52478%, 25.784302%)" offset="0.335938"/><stop stop-opacity="1" stop-color="rgb(78.936768%, 28.329468%, 25.588989%)" offset="0.34375"/><stop stop-opacity="1" stop-color="rgb(78.759766%, 28.132629%, 25.392151%)" offset="0.351562"/><stop stop-opacity="1" stop-color="rgb(78.581238%, 27.937317%, 25.196838%)" offset="0.359375"/><stop stop-opacity="1" stop-color="rgb(78.404236%, 27.740479%, 25%)" offset="0.367188"/><stop stop-opacity="1" stop-color="rgb(78.227234%, 27.54364%, 24.804688%)" offset="0.375"/><stop stop-opacity="1" stop-color="rgb(78.048706%, 27.348328%, 24.607849%)" offset="0.382812"/><stop stop-opacity="1" stop-color="rgb(77.871704%, 27.151489%, 24.412537%)" offset="0.389779"/><stop stop-opacity="1" stop-color="rgb(77.783203%, 27.053833%, 24.31488%)" offset="0.390625"/><stop stop-opacity="1" stop-color="rgb(77.693176%, 26.956177%, 24.215698%)" offset="0.398438"/><stop stop-opacity="1" stop-color="rgb(77.516174%, 26.759338%, 24.020386%)" offset="0.40625"/><stop stop-opacity="1" stop-color="rgb(77.337646%, 26.564026%, 23.823547%)" offset="0.414062"/><stop stop-opacity="1" stop-color="rgb(77.160645%, 26.367188%, 23.628235%)" offset="0.421875"/><stop stop-opacity="1" stop-color="rgb(76.982117%, 26.171875%, 23.431396%)" offset="0.429688"/><stop stop-opacity="1" stop-color="rgb(76.805115%, 25.975037%, 23.236084%)" offset="0.4375"/><stop stop-opacity="1" stop-color="rgb(76.626587%, 25.779724%, 23.039246%)" offset="0.445312"/><stop stop-opacity="1" stop-color="rgb(76.449585%, 25.582886%, 22.843933%)" offset="0.453125"/><stop stop-opacity="1" stop-color="rgb(76.271057%, 25.387573%, 22.647095%)" offset="0.460938"/><stop stop-opacity="1" stop-color="rgb(76.094055%, 25.190735%, 22.451782%)" offset="0.46875"/><stop stop-opacity="1" stop-color="rgb(75.915527%, 24.995422%, 22.254944%)" offset="0.476562"/><stop stop-opacity="1" stop-color="rgb(75.738525%, 24.798584%, 22.059631%)" offset="0.484375"/><stop stop-opacity="1" stop-color="rgb(75.559998%, 24.603271%, 21.862793%)" offset="0.492188"/><stop stop-opacity="1" stop-color="rgb(75.382996%, 24.406433%, 21.66748%)" offset="0.5"/><stop stop-opacity="1" stop-color="rgb(75.204468%, 24.211121%, 21.470642%)" offset="0.507812"/><stop stop-opacity="1" stop-color="rgb(75.027466%, 24.014282%, 21.27533%)" offset="0.515625"/><stop stop-opacity="1" stop-color="rgb(74.848938%, 23.81897%, 21.078491%)" offset="0.523438"/><stop stop-opacity="1" stop-color="rgb(74.671936%, 23.622131%, 20.883179%)" offset="0.53125"/><stop stop-opacity="1" stop-color="rgb(74.493408%, 23.426819%, 20.68634%)" offset="0.539062"/><stop stop-opacity="1" stop-color="rgb(74.316406%, 23.22998%, 20.491028%)" offset="0.546875"/><stop stop-opacity="1" stop-color="rgb(74.137878%, 23.034668%, 20.294189%)" offset="0.554688"/><stop stop-opacity="1" stop-color="rgb(73.960876%, 22.83783%, 20.098877%)" offset="0.5625"/><stop stop-opacity="1" stop-color="rgb(73.783875%, 22.642517%, 19.902039%)" offset="0.570312"/><stop stop-opacity="1" stop-color="rgb(73.605347%, 22.445679%, 19.7052%)" offset="0.578125"/><stop stop-opacity="1" stop-color="rgb(73.428345%, 22.250366%, 19.509888%)" offset="0.585938"/><stop stop-opacity="1" stop-color="rgb(73.249817%, 22.053528%, 19.313049%)" offset="0.59375"/><stop stop-opacity="1" stop-color="rgb(73.072815%, 21.858215%, 19.117737%)" offset="0.601562"/><stop stop-opacity="1" stop-color="rgb(72.894287%, 21.661377%, 18.920898%)" offset="0.609375"/><stop stop-opacity="1" stop-color="rgb(72.717285%, 21.466064%, 18.725586%)" offset="0.610221"/><stop stop-opacity="1" stop-color="rgb(72.628784%, 21.368408%, 18.62793%)" offset="0.617188"/><stop stop-opacity="1" stop-color="rgb(72.538757%, 21.269226%, 18.528748%)" offset="0.625"/><stop stop-opacity="1" stop-color="rgb(72.361755%, 21.073914%, 18.333435%)" offset="0.632812"/><stop stop-opacity="1" stop-color="rgb(72.183228%, 20.877075%, 18.136597%)" offset="0.640625"/><stop stop-opacity="1" stop-color="rgb(72.006226%, 20.681763%, 17.941284%)" offset="0.648438"/><stop stop-opacity="1" stop-color="rgb(71.827698%, 20.484924%, 17.744446%)" offset="0.65625"/><stop stop-opacity="1" stop-color="rgb(71.650696%, 20.289612%, 17.549133%)" offset="0.664062"/><stop stop-opacity="1" stop-color="rgb(71.472168%, 20.092773%, 17.352295%)" offset="0.671875"/><stop stop-opacity="1" stop-color="rgb(71.295166%, 19.897461%, 17.156982%)" offset="0.679688"/><stop stop-opacity="1" stop-color="rgb(71.116638%, 19.700623%, 16.960144%)" offset="0.6875"/><stop stop-opacity="1" stop-color="rgb(70.939636%, 19.50531%, 16.764832%)" offset="0.695312"/><stop stop-opacity="1" stop-color="rgb(70.761108%, 19.308472%, 16.567993%)" offset="0.703125"/><stop stop-opacity="1" stop-color="rgb(70.584106%, 19.111633%, 16.372681%)" offset="0.710938"/><stop stop-opacity="1" stop-color="rgb(70.405579%, 18.916321%, 16.175842%)" offset="0.71875"/><stop stop-opacity="1" stop-color="rgb(70.228577%, 18.719482%, 15.98053%)" offset="0.726562"/><stop stop-opacity="1" stop-color="rgb(70.050049%, 18.52417%, 15.783691%)" offset="0.734375"/><stop stop-opacity="1" stop-color="rgb(69.873047%, 18.327332%, 15.588379%)" offset="0.742188"/><stop stop-opacity="1" stop-color="rgb(69.694519%, 18.132019%, 15.391541%)" offset="0.75"/><stop stop-opacity="1" stop-color="rgb(69.517517%, 17.935181%, 15.196228%)" offset="0.757812"/><stop stop-opacity="1" stop-color="rgb(69.340515%, 17.739868%, 14.99939%)" offset="0.765625"/><stop stop-opacity="1" stop-color="rgb(69.161987%, 17.54303%, 14.804077%)" offset="0.773438"/><stop stop-opacity="1" stop-color="rgb(68.984985%, 17.347717%, 14.607239%)" offset="0.78125"/><stop stop-opacity="1" stop-color="rgb(68.806458%, 17.150879%, 14.411926%)" offset="0.789062"/><stop stop-opacity="1" stop-color="rgb(68.629456%, 16.955566%, 14.215088%)" offset="0.796875"/><stop stop-opacity="1" stop-color="rgb(68.450928%, 16.758728%, 14.019775%)" offset="0.804688"/><stop stop-opacity="1" stop-color="rgb(68.273926%, 16.563416%, 13.822937%)" offset="0.8125"/><stop stop-opacity="1" stop-color="rgb(68.095398%, 16.366577%, 13.627625%)" offset="0.820312"/><stop stop-opacity="1" stop-color="rgb(67.918396%, 16.171265%, 13.430786%)" offset="0.828125"/><stop stop-opacity="1" stop-color="rgb(67.739868%, 15.974426%, 13.235474%)" offset="0.835938"/><stop stop-opacity="1" stop-color="rgb(67.562866%, 15.779114%, 13.038635%)" offset="0.84375"/><stop stop-opacity="1" stop-color="rgb(67.384338%, 15.582275%, 12.843323%)" offset="0.851562"/><stop stop-opacity="1" stop-color="rgb(67.207336%, 15.386963%, 12.646484%)" offset="0.859375"/><stop stop-opacity="1" stop-color="rgb(67.028809%, 15.190125%, 12.451172%)" offset="0.867188"/><stop stop-opacity="1" stop-color="rgb(66.851807%, 14.994812%, 12.254333%)" offset="0.875"/><stop stop-opacity="1" stop-color="rgb(66.673279%, 14.797974%, 12.059021%)" offset="0.882812"/><stop stop-opacity="1" stop-color="rgb(66.496277%, 14.602661%, 11.862183%)" offset="0.890625"/><stop stop-opacity="1" stop-color="rgb(66.317749%, 14.405823%, 11.66687%)" offset="0.898438"/><stop stop-opacity="1" stop-color="rgb(66.140747%, 14.21051%, 11.470032%)" offset="0.90625"/><stop stop-opacity="1" stop-color="rgb(65.962219%, 14.013672%, 11.273193%)" offset="0.914062"/><stop stop-opacity="1" stop-color="rgb(65.785217%, 13.818359%, 11.077881%)" offset="0.921875"/><stop stop-opacity="1" stop-color="rgb(65.606689%, 13.621521%, 10.881042%)" offset="0.929688"/><stop stop-opacity="1" stop-color="rgb(65.429688%, 13.426208%, 10.68573%)" offset="0.9375"/><stop stop-opacity="1" stop-color="rgb(65.25116%, 13.22937%, 10.488892%)" offset="0.945312"/><stop stop-opacity="1" stop-color="rgb(65.074158%, 13.034058%, 10.293579%)" offset="0.953125"/><stop stop-opacity="1" stop-color="rgb(64.897156%, 12.837219%, 10.096741%)" offset="0.960938"/><stop stop-opacity="1" stop-color="rgb(64.718628%, 12.641907%, 9.901428%)" offset="0.96875"/><stop stop-opacity="1" stop-color="rgb(64.541626%, 12.445068%, 9.70459%)" offset="0.976562"/><stop stop-opacity="1" stop-color="rgb(64.363098%, 12.249756%, 9.509277%)" offset="0.984375"/><stop stop-opacity="1" stop-color="rgb(64.186096%, 12.052917%, 9.312439%)" offset="0.992188"/><stop stop-opacity="1" stop-color="rgb(64.007568%, 11.857605%, 9.117126%)" offset="1"/></linearGradient><clipPath id="3515683361"><path d="M 253.714844 149.164062 L 586.8125 149.164062 L 586.8125 367.734375 L 253.714844 367.734375 Z M 253.714844 149.164062 " clip-rule="nonzero"/></clipPath></defs><g clip-path="url(#8cf953a354)"><path fill="#ffffff" d="M 0.585938 0 L 599.414062 0 L 599.414062 382.5 L 0.585938 382.5 Z M 0.585938 0 " fill-opacity="1" fill-rule="nonzero"/><path fill="url(#f45a1798ed)" d="M 0.585938 0 L 0.585938 382.5 L 599.414062 382.5 L 599.414062 0 Z M 0.585938 0 " fill-rule="nonzero"/></g><g clip-path="url(#3515683361)"><path fill="#ffffff" d="M 567.917969 149.730469 L 272.527344 149.730469 C 271.90625 149.730469 271.289062 149.761719 270.671875 149.824219 C 270.054688 149.882812 269.441406 149.976562 268.835938 150.097656 C 268.226562 150.21875 267.625 150.367188 267.03125 150.550781 C 266.441406 150.730469 265.855469 150.9375 265.285156 151.175781 C 264.710938 151.414062 264.152344 151.679688 263.605469 151.972656 C 263.058594 152.261719 262.527344 152.582031 262.011719 152.925781 C 261.496094 153.269531 261 153.640625 260.519531 154.03125 C 260.042969 154.425781 259.582031 154.84375 259.144531 155.28125 C 258.707031 155.71875 258.289062 156.175781 257.898438 156.65625 C 257.503906 157.136719 257.136719 157.632812 256.789062 158.148438 C 256.445312 158.664062 256.128906 159.195312 255.835938 159.742188 C 255.542969 160.289062 255.277344 160.847656 255.039062 161.421875 C 254.804688 161.992188 254.59375 162.574219 254.414062 163.167969 C 254.234375 163.761719 254.082031 164.363281 253.960938 164.96875 C 253.839844 165.578125 253.75 166.191406 253.6875 166.808594 C 253.625 167.425781 253.59375 168.042969 253.59375 168.664062 L 253.59375 348.703125 C 253.59375 349.324219 253.625 349.941406 253.6875 350.558594 C 253.75 351.175781 253.839844 351.789062 253.960938 352.398438 C 254.082031 353.003906 254.234375 353.605469 254.414062 354.199219 C 254.59375 354.792969 254.804688 355.375 255.039062 355.945312 C 255.277344 356.519531 255.542969 357.078125 255.835938 357.625 C 256.128906 358.171875 256.445312 358.703125 256.789062 359.21875 C 257.136719 359.734375 257.503906 360.230469 257.898438 360.710938 C 258.289062 361.1875 258.707031 361.648438 259.144531 362.085938 C 259.582031 362.523438 260.042969 362.941406 260.519531 363.332031 C 261 363.726562 261.496094 364.09375 262.011719 364.441406 C 262.527344 364.785156 263.058594 365.101562 263.605469 365.394531 C 264.152344 365.6875 264.710938 365.953125 265.285156 366.191406 C 265.855469 366.429688 266.441406 366.636719 267.03125 366.816406 C 267.625 366.996094 268.226562 367.148438 268.835938 367.269531 C 269.441406 367.390625 270.054688 367.484375 270.671875 367.542969 C 271.289062 367.605469 271.90625 367.636719 272.527344 367.636719 L 567.917969 367.636719 C 568.535156 367.636719 569.15625 367.605469 569.769531 367.542969 C 570.386719 367.484375 571 367.390625 571.609375 367.269531 C 572.214844 367.148438 572.816406 367 573.410156 366.816406 C 574.003906 366.636719 574.585938 366.429688 575.160156 366.191406 C 575.730469 365.953125 576.292969 365.6875 576.839844 365.394531 C 577.386719 365.105469 577.914062 364.785156 578.429688 364.441406 C 578.945312 364.097656 579.445312 363.726562 579.921875 363.335938 C 580.402344 362.941406 580.859375 362.523438 581.300781 362.085938 C 581.738281 361.648438 582.152344 361.191406 582.546875 360.710938 C 582.941406 360.230469 583.308594 359.734375 583.652344 359.21875 C 584 358.703125 584.316406 358.171875 584.609375 357.625 C 584.902344 357.078125 585.167969 356.519531 585.40625 355.945312 C 585.640625 355.375 585.851562 354.792969 586.03125 354.199219 C 586.210938 353.605469 586.363281 353.003906 586.484375 352.398438 C 586.605469 351.789062 586.699219 351.175781 586.757812 350.558594 C 586.820312 349.941406 586.851562 349.324219 586.851562 348.703125 L 586.851562 168.664062 C 586.851562 168.042969 586.820312 167.425781 586.757812 166.808594 C 586.699219 166.191406 586.605469 165.578125 586.484375 164.96875 C 586.363281 164.363281 586.210938 163.761719 586.03125 163.167969 C 585.851562 162.574219 585.640625 161.992188 585.40625 161.417969 C 585.167969 160.847656 584.902344 160.289062 584.609375 159.742188 C 584.316406 159.195312 584 158.664062 583.652344 158.148438 C 583.308594 157.632812 582.941406 157.136719 582.546875 156.65625 C 582.152344 156.175781 581.738281 155.71875 581.300781 155.28125 C 580.859375 154.839844 580.402344 154.425781 579.921875 154.03125 C 579.445312 153.640625 578.945312 153.269531 578.429688 152.925781 C 577.914062 152.582031 577.386719 152.261719 576.839844 151.96875 C 576.292969 151.675781 575.730469 151.414062 575.160156 151.175781 C 574.585938 150.9375 574.003906 150.730469 573.410156 150.546875 C 572.816406 150.367188 572.214844 150.21875 571.609375 150.097656 C 571 149.976562 570.386719 149.882812 569.769531 149.824219 C 569.15625 149.761719 568.535156 149.730469 567.917969 149.730469 Z M 472.597656 258.683594 L 576.59375 165.980469 C 576.882812 166.851562 577.03125 167.746094 577.042969 168.664062 L 577.042969 348.703125 C 577.03125 349.621094 576.882812 350.515625 576.59375 351.386719 Z M 567.90625 159.539062 C 568.253906 159.554688 568.597656 159.589844 568.941406 159.644531 L 426.261719 286.824219 C 425.847656 287.195312 425.402344 287.523438 424.929688 287.808594 C 424.457031 288.097656 423.960938 288.339844 423.441406 288.539062 C 422.925781 288.738281 422.390625 288.886719 421.847656 288.984375 C 421.300781 289.085938 420.753906 289.136719 420.199219 289.136719 C 419.644531 289.136719 419.09375 289.085938 418.546875 288.984375 C 418.003906 288.886719 417.472656 288.738281 416.953125 288.539062 C 416.433594 288.339844 415.9375 288.097656 415.464844 287.808594 C 414.992188 287.523438 414.546875 287.195312 414.132812 286.824219 L 271.492188 159.644531 C 271.835938 159.589844 272.179688 159.554688 272.527344 159.539062 Z M 263.851562 351.386719 C 263.566406 350.515625 263.417969 349.621094 263.40625 348.703125 L 263.40625 168.664062 C 263.417969 167.746094 263.566406 166.851562 263.851562 165.980469 L 367.847656 258.683594 Z M 272.527344 357.835938 C 272.179688 357.820312 271.835938 357.785156 271.492188 357.730469 L 375.210938 265.261719 L 407.632812 294.148438 C 408.492188 294.914062 409.414062 295.597656 410.398438 296.195312 C 411.382812 296.792969 412.410156 297.296875 413.488281 297.707031 C 414.5625 298.117188 415.664062 298.425781 416.796875 298.636719 C 417.929688 298.84375 419.070312 298.949219 420.222656 298.949219 C 421.375 298.949219 422.515625 298.84375 423.648438 298.636719 C 424.78125 298.425781 425.882812 298.117188 426.957031 297.707031 C 428.035156 297.296875 429.0625 296.792969 430.046875 296.195312 C 431.03125 295.597656 431.953125 294.914062 432.8125 294.148438 L 465.226562 265.253906 L 568.945312 357.722656 C 568.601562 357.777344 568.253906 357.8125 567.90625 357.824219 Z M 272.527344 357.835938 " fill-opacity="1" fill-rule="nonzero"/></g></svg>