<svg xmlns="http://www.w3.org/2000/svg" xmlns:xlink="http://www.w3.org/1999/xlink" width="800" zoomAndPan="magnify" viewBox="0 0 600 383.249997" height="511" preserveAspectRatio="xMidYMid meet" version="1.0"><defs><clipPath id="a3d31b268c"><path d="M 0.585938 0 L 599.414062 0 L 599.414062 382.5 L 0.585938 382.5 Z M 0.585938 0 " clip-rule="nonzero"/></clipPath><linearGradient x1="72.25" gradientTransform="matrix(0.748535, 0, 0, 0.748535, 0.58594, 0.00000998047)" y1="-72.25" x2="727.749973" gradientUnits="userSpaceOnUse" y2="583.249973" id="7e579a0194"><stop stop-opacity="1" stop-color="rgb(31.369019%, 29.798889%, 29.798889%)" offset="0"/><stop stop-opacity="1" stop-color="rgb(31.227112%, 29.670715%, 29.670715%)" offset="0.015625"/><stop stop-opacity="1" stop-color="rgb(30.94635%, 29.412842%, 29.412842%)" offset="0.03125"/><stop stop-opacity="1" stop-color="rgb(30.664062%, 29.154968%, 29.154968%)" offset="0.046875"/><stop stop-opacity="1" stop-color="rgb(30.381775%, 28.898621%, 28.898621%)" offset="0.0625"/><stop stop-opacity="1" stop-color="rgb(30.099487%, 28.640747%, 28.640747%)" offset="0.078125"/><stop stop-opacity="1" stop-color="rgb(29.818726%, 28.382874%, 28.382874%)" offset="0.09375"/><stop stop-opacity="1" stop-color="rgb(29.536438%, 28.126526%, 28.126526%)" offset="0.109375"/><stop stop-opacity="1" stop-color="rgb(29.25415%, 27.868652%, 27.868652%)" offset="0.125"/><stop stop-opacity="1" stop-color="rgb(28.973389%, 27.610779%, 27.610779%)" offset="0.140625"/><stop stop-opacity="1" stop-color="rgb(28.691101%, 27.354431%, 27.354431%)" offset="0.15625"/><stop stop-opacity="1" stop-color="rgb(28.408813%, 27.096558%, 27.096558%)" offset="0.171875"/><stop stop-opacity="1" stop-color="rgb(28.126526%, 26.838684%, 26.838684%)" offset="0.1875"/><stop stop-opacity="1" stop-color="rgb(27.845764%, 26.582336%, 26.582336%)" offset="0.203125"/><stop stop-opacity="1" stop-color="rgb(27.563477%, 26.324463%, 26.324463%)" offset="0.21875"/><stop stop-opacity="1" stop-color="rgb(27.281189%, 26.066589%, 26.066589%)" offset="0.234375"/><stop stop-opacity="1" stop-color="rgb(26.998901%, 25.810242%, 25.810242%)" offset="0.25"/><stop stop-opacity="1" stop-color="rgb(26.71814%, 25.552368%, 25.552368%)" offset="0.265625"/><stop stop-opacity="1" stop-color="rgb(26.435852%, 25.294495%, 25.294495%)" offset="0.28125"/><stop stop-opacity="1" stop-color="rgb(26.153564%, 25.038147%, 25.038147%)" offset="0.296875"/><stop stop-opacity="1" stop-color="rgb(25.872803%, 24.780273%, 24.780273%)" offset="0.3125"/><stop stop-opacity="1" stop-color="rgb(25.590515%, 24.523926%, 24.523926%)" offset="0.328125"/><stop stop-opacity="1" stop-color="rgb(25.308228%, 24.266052%, 24.266052%)" offset="0.34375"/><stop stop-opacity="1" stop-color="rgb(25.02594%, 24.008179%, 24.008179%)" offset="0.359375"/><stop stop-opacity="1" stop-color="rgb(24.745178%, 23.751831%, 23.751831%)" offset="0.375"/><stop stop-opacity="1" stop-color="rgb(24.462891%, 23.493958%, 23.493958%)" offset="0.389779"/><stop stop-opacity="1" stop-color="rgb(24.32251%, 23.365784%, 23.365784%)" offset="0.390625"/><stop stop-opacity="1" stop-color="rgb(24.180603%, 23.236084%, 23.236084%)" offset="0.40625"/><stop stop-opacity="1" stop-color="rgb(23.898315%, 22.979736%, 22.979736%)" offset="0.421875"/><stop stop-opacity="1" stop-color="rgb(23.617554%, 22.721863%, 22.721863%)" offset="0.4375"/><stop stop-opacity="1" stop-color="rgb(23.335266%, 22.463989%, 22.463989%)" offset="0.453125"/><stop stop-opacity="1" stop-color="rgb(23.052979%, 22.207642%, 22.207642%)" offset="0.46875"/><stop stop-opacity="1" stop-color="rgb(22.772217%, 21.949768%, 21.949768%)" offset="0.484375"/><stop stop-opacity="1" stop-color="rgb(22.489929%, 21.691895%, 21.691895%)" offset="0.5"/><stop stop-opacity="1" stop-color="rgb(22.207642%, 21.435547%, 21.435547%)" offset="0.515625"/><stop stop-opacity="1" stop-color="rgb(21.925354%, 21.177673%, 21.177673%)" offset="0.53125"/><stop stop-opacity="1" stop-color="rgb(21.644592%, 20.9198%, 20.9198%)" offset="0.546875"/><stop stop-opacity="1" stop-color="rgb(21.362305%, 20.663452%, 20.663452%)" offset="0.5625"/><stop stop-opacity="1" stop-color="rgb(21.080017%, 20.405579%, 20.405579%)" offset="0.578125"/><stop stop-opacity="1" stop-color="rgb(20.797729%, 20.147705%, 20.147705%)" offset="0.59375"/><stop stop-opacity="1" stop-color="rgb(20.516968%, 19.891357%, 19.891357%)" offset="0.609375"/><stop stop-opacity="1" stop-color="rgb(20.23468%, 19.633484%, 19.633484%)" offset="0.610221"/><stop stop-opacity="1" stop-color="rgb(20.094299%, 19.50531%, 19.50531%)" offset="0.625"/><stop stop-opacity="1" stop-color="rgb(19.952393%, 19.37561%, 19.37561%)" offset="0.640625"/><stop stop-opacity="1" stop-color="rgb(19.671631%, 19.119263%, 19.119263%)" offset="0.65625"/><stop stop-opacity="1" stop-color="rgb(19.389343%, 18.861389%, 18.861389%)" offset="0.671875"/><stop stop-opacity="1" stop-color="rgb(19.107056%, 18.605042%, 18.605042%)" offset="0.6875"/><stop stop-opacity="1" stop-color="rgb(18.824768%, 18.347168%, 18.347168%)" offset="0.703125"/><stop stop-opacity="1" stop-color="rgb(18.544006%, 18.089294%, 18.089294%)" offset="0.71875"/><stop stop-opacity="1" stop-color="rgb(18.261719%, 17.832947%, 17.832947%)" offset="0.734375"/><stop stop-opacity="1" stop-color="rgb(17.979431%, 17.575073%, 17.575073%)" offset="0.75"/><stop stop-opacity="1" stop-color="rgb(17.697144%, 17.3172%, 17.3172%)" offset="0.765625"/><stop stop-opacity="1" stop-color="rgb(17.416382%, 17.060852%, 17.060852%)" offset="0.78125"/><stop stop-opacity="1" stop-color="rgb(17.134094%, 16.802979%, 16.802979%)" offset="0.796875"/><stop stop-opacity="1" stop-color="rgb(16.851807%, 16.545105%, 16.545105%)" offset="0.8125"/><stop stop-opacity="1" stop-color="rgb(16.569519%, 16.288757%, 16.288757%)" offset="0.828125"/><stop stop-opacity="1" stop-color="rgb(16.288757%, 16.030884%, 16.030884%)" offset="0.84375"/><stop stop-opacity="1" stop-color="rgb(16.00647%, 15.77301%, 15.77301%)" offset="0.859375"/><stop stop-opacity="1" stop-color="rgb(15.724182%, 15.516663%, 15.516663%)" offset="0.875"/><stop stop-opacity="1" stop-color="rgb(15.44342%, 15.258789%, 15.258789%)" offset="0.890625"/><stop stop-opacity="1" stop-color="rgb(15.161133%, 15.000916%, 15.000916%)" offset="0.90625"/><stop stop-opacity="1" stop-color="rgb(14.878845%, 14.744568%, 14.744568%)" offset="0.921875"/><stop stop-opacity="1" stop-color="rgb(14.596558%, 14.486694%, 14.486694%)" offset="0.9375"/><stop stop-opacity="1" stop-color="rgb(14.315796%, 14.228821%, 14.228821%)" offset="0.953125"/><stop stop-opacity="1" stop-color="rgb(14.033508%, 13.972473%, 13.972473%)" offset="0.96875"/><stop stop-opacity="1" stop-color="rgb(13.751221%, 13.7146%, 13.7146%)" offset="0.984375"/><stop stop-opacity="1" stop-color="rgb(13.468933%, 13.456726%, 13.456726%)" offset="1"/></linearGradient><clipPath id="9803d960b1"><path d="M 416.765625 150.300781 L 585.1875 150.300781 L 585.1875 368.875 L 416.765625 368.875 Z M 416.765625 150.300781 " clip-rule="nonzero"/></clipPath></defs><g clip-path="url(#a3d31b268c)"><path fill="#ffffff" d="M 0.585938 0 L 599.414062 0 L 599.414062 382.5 L 0.585938 382.5 Z M 0.585938 0 " fill-opacity="1" fill-rule="nonzero"/><path fill="url(#7e579a0194)" d="M 0.585938 0 L 0.585938 382.5 L 599.414062 382.5 L 599.414062 0 Z M 0.585938 0 " fill-rule="nonzero"/></g><g clip-path="url(#9803d960b1)"><path fill="#ffffff" d="M 575.867188 174.285156 L 539.867188 174.285156 L 520.890625 155.40625 C 520.585938 155.105469 520.28125 154.867188 519.980469 154.632812 C 516.980469 152.136719 512.292969 150.351562 508.585938 150.351562 L 426.207031 150.351562 C 421.015625 150.351562 416.765625 154.597656 416.765625 159.789062 L 416.765625 335.640625 C 416.765625 340.832031 421.015625 345.078125 426.207031 345.078125 L 436.992188 345.078125 L 436.992188 359.574219 C 436.992188 364.765625 441.238281 369.011719 446.429688 369.011719 L 575.867188 369.011719 C 581.058594 369.011719 585.304688 364.765625 585.304688 359.574219 L 585.304688 183.6875 C 585.304688 178.496094 581.058594 174.285156 575.867188 174.285156 Z M 518.023438 163.363281 L 551.933594 197.035156 L 519.777344 197.035156 C 518.800781 197.035156 517.992188 196.226562 517.992188 195.25 L 517.992188 163.363281 Z M 424.417969 335.640625 L 424.417969 159.789062 C 424.417969 158.8125 425.226562 158.003906 426.207031 158.003906 L 508.585938 158.003906 C 509.160156 158.003906 509.800781 158.105469 510.472656 158.273438 C 510.40625 158.746094 510.371094 159.25 510.371094 159.753906 L 510.371094 195.214844 C 510.371094 200.40625 514.621094 204.652344 519.8125 204.652344 L 555.640625 204.652344 C 556.179688 204.652344 556.6875 204.621094 557.125 204.554688 C 557.292969 205.226562 557.394531 205.867188 557.394531 206.441406 L 557.394531 335.609375 C 557.394531 336.585938 556.585938 337.394531 555.609375 337.394531 L 426.207031 337.394531 C 425.226562 337.429688 424.417969 336.617188 424.417969 335.640625 Z M 577.652344 359.574219 C 577.652344 360.550781 576.84375 361.359375 575.867188 361.359375 L 446.429688 361.359375 C 445.453125 361.359375 444.644531 360.550781 444.644531 359.574219 L 444.644531 345.078125 L 555.640625 345.078125 C 560.832031 345.078125 565.078125 340.832031 565.078125 335.640625 L 565.078125 206.472656 C 565.078125 202.765625 563.292969 198.148438 560.800781 195.148438 C 560.5625 194.84375 560.292969 194.542969 559.957031 194.203125 L 547.585938 181.933594 L 575.867188 181.933594 C 576.84375 181.933594 577.652344 182.746094 577.652344 183.722656 Z M 535.957031 233.273438 L 445.890625 233.273438 C 444.070312 233.273438 442.621094 231.789062 442.621094 230.003906 C 442.621094 228.214844 444.105469 226.734375 445.890625 226.734375 L 535.957031 226.734375 C 537.777344 226.734375 539.226562 228.214844 539.226562 230.003906 C 539.226562 231.789062 537.777344 233.273438 535.957031 233.273438 Z M 535.957031 257.203125 L 445.890625 257.203125 C 444.070312 257.203125 442.621094 255.722656 442.621094 253.933594 C 442.621094 252.148438 444.105469 250.664062 445.890625 250.664062 L 535.957031 250.664062 C 537.777344 250.664062 539.226562 252.148438 539.226562 253.933594 C 539.226562 255.722656 537.777344 257.203125 535.957031 257.203125 Z M 535.957031 281.101562 L 445.890625 281.101562 C 444.070312 281.101562 442.621094 279.621094 442.621094 277.832031 C 442.621094 276.046875 444.105469 274.5625 445.890625 274.5625 L 535.957031 274.5625 C 537.777344 274.5625 539.226562 276.046875 539.226562 277.832031 C 539.226562 279.621094 537.777344 281.101562 535.957031 281.101562 Z M 484.519531 305.035156 L 445.890625 305.035156 C 444.070312 305.035156 442.621094 303.550781 442.621094 301.765625 C 442.621094 299.945312 444.105469 298.496094 445.890625 298.496094 L 484.519531 298.496094 C 486.339844 298.496094 487.789062 299.980469 487.789062 301.765625 C 487.789062 303.550781 486.339844 305.035156 484.519531 305.035156 Z M 484.519531 305.035156 " fill-opacity="1" fill-rule="nonzero"/></g></svg>